<?xml version="1.0" standalone="no"?>
<!DOCTYPE svg PUBLIC "-//W3C//DTD SVG 20010904//EN"
 "http://www.w3.org/TR/2001/REC-SVG-20010904/DTD/svg10.dtd">
<svg version="1.0" xmlns="http://www.w3.org/2000/svg"
 width="2000.000000pt" height="1600.000000pt" viewBox="0 0 2000.000000 1600.000000"
 preserveAspectRatio="xMidYMid meet">
<metadata>
Created by potrace 1.15, written by Peter Selinger 2001-2017
</metadata>
<g transform="translate(0.000000,1600.000000) scale(0.100000,-0.100000)"
fill="#000000" stroke="none">
<path d="M0 8000 l0 -8000 4520 0 4520 0 0 25 c0 23 4 25 40 25 22 0 40 3 40
8 0 4 -18 6 -40 4 -39 -4 -40 -3 -40 26 0 21 -6 33 -19 37 -11 3 -22 12 -25
20 -3 8 -12 15 -21 15 -8 0 -15 5 -15 10 0 6 5 10 10 10 6 0 10 7 10 15 0 8
-4 15 -10 15 -5 0 -10 -4 -10 -10 0 -19 -17 -10 -28 15 -9 20 -19 25 -47 25
-19 0 -35 5 -35 10 0 6 7 10 15 10 8 0 15 5 15 10 0 6 -4 10 -9 10 -6 0 -13
-4 -16 -10 -3 -5 -17 -10 -29 -10 -18 0 -25 7 -30 30 -4 24 -11 30 -32 30 -20
0 -25 4 -20 16 18 46 18 64 2 64 -28 0 -59 36 -51 59 4 15 2 21 -9 21 -8 0
-18 -4 -21 -10 -3 -5 -10 -10 -16 -10 -12 0 -12 33 1 46 7 7 4 16 -10 29 -11
10 -20 24 -20 31 0 8 -13 20 -30 29 -17 9 -30 11 -30 5 0 -5 -18 -10 -40 -10
-37 0 -40 2 -40 28 0 26 -2 28 -35 24 -26 -3 -36 0 -41 12 -6 15 -8 15 -24 1
-16 -15 -18 -14 -23 5 -5 21 3 29 39 34 26 4 30 26 5 26 -14 0 -21 6 -21 18 0
10 -5 23 -12 30 -17 17 -48 15 -48 -3 0 -8 -4 -15 -10 -15 -5 0 -10 5 -10 10
0 6 -7 10 -15 10 -8 0 -15 -5 -15 -11 0 -18 30 -41 45 -35 8 3 15 1 15 -3 0
-5 3 -16 6 -25 8 -21 -39 -22 -56 -1 -7 8 -19 15 -27 15 -8 0 -12 4 -9 8 3 5
-8 6 -25 4 -23 -3 -29 -1 -29 15 0 10 -14 30 -30 45 -18 16 -26 29 -20 33 6 4
16 2 23 -3 20 -16 86 -20 80 -5 -3 7 -14 13 -24 13 -12 0 -19 7 -19 20 0 15
-7 20 -27 20 -16 0 -41 11 -57 25 -16 14 -34 25 -40 25 -5 0 -23 12 -39 28
-20 18 -31 23 -34 15 -8 -22 -31 -14 -37 12 -3 13 -15 29 -26 35 -16 9 -20 21
-20 64 0 52 -1 53 -40 71 -30 13 -40 24 -40 41 0 13 -7 24 -17 26 -10 2 -18
10 -19 18 -1 8 -2 25 -2 38 -2 15 -8 22 -22 22 -16 0 -20 7 -20 30 0 19 -5 30
-14 30 -19 0 -46 -27 -46 -46 0 -8 -4 -14 -10 -14 -5 0 -10 -7 -10 -16 0 -14
-2 -15 -17 -3 -15 13 -15 14 0 17 11 2 17 13 17 31 0 23 -6 28 -40 38 -32 8
-40 8 -40 -3 0 -8 -7 -15 -15 -15 -8 -1 -21 -2 -27 -3 -7 0 -14 -11 -16 -23
-4 -28 -22 -31 -22 -4 0 10 -9 30 -20 44 -17 22 -18 26 -4 31 23 9 24 8 24
-16 0 -17 3 -19 9 -9 5 7 4 28 -2 47 -8 26 -15 33 -29 29 -10 -3 -27 -8 -38
-11 -14 -4 -20 -1 -20 10 0 9 -9 16 -20 16 -26 0 -60 34 -60 60 0 13 7 20 20
20 26 0 26 27 0 35 -11 3 -20 11 -20 16 0 5 -18 9 -40 9 -33 0 -40 -3 -40 -20
0 -17 7 -20 40 -20 38 0 54 -13 28 -23 -10 -3 -10 -11 0 -39 16 -47 16 -69 -3
-62 -8 3 -19 23 -25 45 -6 21 -16 41 -22 45 -7 4 -8 3 -4 -4 10 -17 -19 -15
-33 1 -6 8 -9 16 -7 18 2 2 7 20 10 39 3 19 9 36 15 38 19 6 -16 82 -38 82
-10 0 -6 7 12 18 30 19 34 34 12 52 -8 7 -15 24 -15 37 0 30 -20 26 -37 -8 -9
-16 -13 -19 -13 -8 0 9 7 22 15 29 13 11 13 15 0 41 -8 15 -15 39 -15 53 0 13
-6 26 -12 29 -8 3 -1 9 14 16 16 6 28 17 28 25 0 18 43 33 48 17 2 -6 15 -11
28 -11 23 0 25 4 22 40 -1 29 -7 42 -21 46 -11 4 -23 0 -28 -7 -8 -11 -12 -10
-25 6 -14 19 -13 20 31 23 39 3 45 5 35 18 -7 8 -19 14 -26 14 -8 0 -14 10
-14 24 0 13 -4 26 -8 28 -5 2 -6 21 -3 43 l5 40 6 -35 7 -35 15 35 c18 40 8
64 -23 55 -11 -4 -19 -2 -19 4 0 6 6 11 14 11 44 0 106 62 106 107 0 14 2 14
20 -2 22 -20 27 -7 9 26 -8 16 -7 26 5 44 14 21 14 31 4 65 -7 22 -19 40 -25
40 -8 0 -13 12 -13 29 0 16 -5 31 -11 33 -7 2 -1 19 14 42 15 20 29 46 32 57
4 10 11 19 16 19 5 0 9 14 9 31 0 24 4 30 18 27 9 -2 17 -10 17 -18 0 -8 7
-15 15 -15 9 0 14 7 12 18 -2 11 4 17 15 17 18 0 60 53 56 71 -2 5 5 9 14 9
31 0 2 14 -30 15 -28 1 -32 4 -35 31 -4 37 33 79 44 50 8 -20 34 -21 34 -1 0
8 4 15 10 15 5 0 23 18 39 40 15 21 31 37 33 34 3 -2 11 2 17 10 14 16 6 40
-10 31 -18 -12 -8 6 16 29 14 13 25 30 25 38 0 8 13 25 30 38 32 25 40 50 15
50 -8 0 -15 7 -15 15 0 8 9 15 21 15 11 0 17 -4 14 -10 -4 -6 -2 -17 5 -25 9
-10 7 -20 -6 -40 -9 -14 -14 -28 -10 -32 3 -3 6 -1 6 5 0 7 5 12 11 12 6 0 9
-18 8 -45 -2 -24 0 -47 3 -51 4 -3 3 -17 -3 -31 -12 -32 -12 -33 5 -33 11 0
16 -15 18 -53 2 -28 5 31 6 133 1 130 6 197 16 225 15 43 32 56 38 28 3 -13 9
-8 21 20 18 41 37 53 65 42 9 -5 28 -8 42 -9 24 -1 25 2 30 64 3 36 11 74 19
85 17 26 91 79 91 66 0 -21 37 -11 48 14 15 32 52 40 119 25 30 -6 57 -9 60
-6 4 3 -3 6 -15 6 -12 0 -22 5 -22 10 0 6 -6 10 -13 10 -8 0 -22 9 -32 20 -17
19 -17 20 11 31 86 35 97 43 88 72 -4 12 0 17 15 17 12 0 21 5 21 10 0 6 9 10
20 10 11 0 20 5 20 11 0 8 6 7 17 -2 15 -13 16 -10 11 28 -6 39 -4 44 23 57
16 8 29 10 29 5 0 -5 -4 -9 -10 -9 -5 0 -10 -14 -10 -31 l0 -31 38 37 c37 35
38 38 32 82 -7 47 3 73 29 73 19 0 12 20 -9 28 -20 7 -19 9 11 40 17 18 37 32
45 32 7 0 18 8 23 18 10 16 10 16 11 0 0 -23 12 -23 40 2 13 11 27 20 32 20 4
0 8 5 8 10 0 6 -7 10 -15 10 -8 0 -15 -4 -15 -10 0 -5 -11 -10 -25 -10 -41 0
-30 27 15 34 22 3 40 11 40 16 0 6 7 10 15 10 9 0 19 8 22 18 10 24 29 42 47
42 9 0 13 6 10 14 -3 9 4 16 21 20 14 4 23 11 20 16 -7 11 5 13 48 10 19 -1
27 3 27 15 0 25 33 62 50 57 13 -5 13 -3 0 13 -14 17 -13 18 21 13 28 -5 39
-2 50 13 23 32 61 53 103 55 21 1 42 7 46 14 24 39 470 40 695 1 116 -20 223
-45 270 -62 28 -9 67 -20 88 -24 94 -15 339 -108 612 -230 28 -13 82 -37 121
-54 40 -17 103 -48 140 -69 38 -22 110 -61 159 -87 166 -90 352 -213 478 -317
32 -26 72 -55 88 -65 16 -10 29 -20 29 -24 0 -4 23 -23 50 -43 99 -71 307
-267 372 -351 26 -33 59 -71 72 -85 67 -68 215 -257 276 -350 38 -58 75 -112
82 -121 20 -24 244 -146 253 -137 2 2 -40 71 -95 154 -113 169 -121 181 -180
284 -23 41 -52 89 -63 105 -74 108 -374 428 -489 521 -40 32 -105 88 -144 124
-72 66 -169 143 -324 257 -47 34 -97 71 -112 83 -14 11 -32 20 -39 20 -7 0
-20 6 -28 14 -26 22 -438 249 -552 304 -57 28 -135 60 -174 72 -38 12 -132 42
-207 66 -200 65 -458 123 -559 125 -46 1 -108 8 -137 15 -30 6 -62 9 -73 7
-10 -3 -31 -2 -45 1 -25 7 -26 8 -8 21 11 8 29 15 42 15 12 0 22 4 22 8 0 4
27 14 60 21 33 8 60 18 60 24 0 6 19 8 48 4 26 -2 39 -3 30 0 -10 2 -18 8 -18
13 0 5 -27 6 -59 4 -35 -3 -62 -1 -66 6 -3 5 1 10 10 10 20 0 114 28 139 42
11 6 46 13 78 15 32 3 58 9 58 13 0 14 55 31 178 55 176 33 172 32 142 34 -45
2 0 21 52 21 26 0 50 4 53 10 3 5 23 9 43 9 20 -1 55 3 77 9 77 20 151 30 240
32 50 0 92 5 93 11 2 5 27 9 55 9 29 0 71 5 95 10 23 6 60 11 82 12 43 1 57
18 16 18 -33 0 -57 10 -50 21 3 5 16 9 30 9 14 0 27 6 30 14 3 8 15 14 27 14
41 -1 242 21 260 27 10 4 17 2 17 -5 0 -8 21 -10 79 -5 48 5 81 4 84 -2 4 -6
-5 -9 -21 -6 -27 3 -27 3 -3 -7 15 -7 41 -7 72 -2 27 5 46 5 43 1 -3 -5 17 -9
44 -9 59 0 166 20 155 29 -21 18 -125 44 -131 34 -4 -6 -42 -12 -84 -15 -60
-2 -79 0 -83 10 -3 10 -16 13 -37 10 -20 -3 -38 0 -46 9 -8 8 -27 17 -43 20
-37 7 -38 23 -1 23 52 0 0 20 -58 21 l-55 1 54 8 c46 7 62 5 109 -16 30 -13
66 -24 79 -24 18 0 24 -4 19 -15 -6 -16 5 -18 44 -5 15 5 18 8 9 9 -9 1 -19 7
-22 15 -3 8 -23 17 -44 21 -21 3 -51 18 -68 32 -16 14 -25 22 -18 19 6 -4 14
-2 18 4 7 11 100 8 111 -3 4 -4 17 -7 30 -7 12 0 24 -6 27 -12 3 -10 9 -8 24
5 11 9 27 17 35 17 9 0 19 8 23 18 6 16 7 16 19 0 10 -13 21 -16 50 -11 24 4
34 9 28 15 -6 6 -17 6 -30 -1 -13 -7 -23 -8 -27 -1 -10 16 41 22 114 13 39 -5
74 -6 78 -2 14 13 186 34 257 32 37 -2 77 2 88 8 11 6 47 13 81 15 34 3 64 9
67 13 3 4 28 11 57 14 29 3 63 13 77 22 14 9 29 14 35 11 10 -7 101 18 148 41
18 9 48 17 67 18 18 1 37 4 42 7 5 3 21 5 36 4 14 -1 26 3 25 8 -3 13 48 25
64 15 12 -7 12 -9 -1 -9 -10 0 -11 -3 -3 -11 8 -8 16 -8 30 0 10 6 12 11 6 11
-21 0 -15 20 6 20 21 0 51 -39 51 -67 1 -10 8 -29 16 -43 l15 -25 -5 25 c-3
14 -9 41 -12 60 -6 35 -5 36 29 37 18 0 48 8 65 17 17 9 40 16 52 16 11 0 20
4 20 9 0 13 74 20 82 7 13 -19 9 -27 -14 -24 -15 2 -23 -2 -23 -12 0 -10 14
-14 53 -16 29 0 55 -4 59 -8 3 -3 13 -6 22 -6 12 0 12 3 3 12 -7 7 -12 16 -12
21 0 12 45 4 46 -8 0 -5 6 -22 12 -37 11 -27 10 -113 -2 -125 -3 -4 -6 1 -6
10 0 10 -7 17 -15 17 -8 0 -15 -4 -15 -10 0 -5 5 -10 10 -10 6 0 10 -7 10 -15
0 -8 -6 -14 -12 -12 -7 1 -14 -8 -16 -20 -2 -13 2 -23 8 -23 7 0 10 -62 8
-209 -2 -115 -5 -205 -8 -201 -3 5 -3 -34 -2 -86 3 -81 2 -95 -13 -100 -9 -4
-20 -2 -24 4 -5 8 -17 9 -45 1 -22 -6 -61 -8 -90 -4 l-51 7 24 -21 c14 -12 36
-24 50 -27 55 -12 62 -16 57 -30 -3 -8 -1 -15 4 -15 6 -1 15 -2 20 -3 6 0 14
-7 19 -14 4 -7 15 -10 24 -6 18 7 23 24 7 24 -5 0 -10 5 -10 11 0 8 4 9 13 0
8 -6 17 -7 21 -3 4 4 7 2 5 -3 -1 -6 0 -17 3 -25 9 -24 31 -127 32 -152 1 -13
7 -41 13 -63 6 -22 14 -53 17 -69 14 -61 15 -16 1 65 -13 80 -20 156 -16 189
1 10 6 7 15 -9 l13 -24 1 24 c0 54 11 69 54 69 40 0 58 -10 58 -34 0 -11 5
-28 10 -36 8 -13 11 -13 19 -1 5 8 16 11 26 7 14 -5 16 -1 10 23 -5 24 -2 29
17 35 13 3 35 6 49 6 23 0 27 -5 33 -42 5 -29 3 -44 -6 -49 -10 -7 -10 -13 -1
-27 19 -31 27 -115 38 -407 0 -22 6 -51 12 -65 6 -14 16 -72 23 -130 6 -58 15
-119 21 -136 5 -17 9 -37 9 -46 0 -8 7 -29 15 -45 8 -17 20 -57 26 -89 5 -33
18 -86 29 -119 10 -33 26 -87 35 -120 10 -33 23 -69 30 -80 13 -20 30 -84 27
-98 -1 -4 2 -7 7 -7 5 0 14 -21 21 -47 6 -27 22 -70 36 -96 13 -27 24 -57 24
-68 0 -10 5 -19 11 -19 5 0 8 -4 5 -9 -3 -5 5 -29 19 -54 13 -26 29 -66 35
-89 7 -24 23 -57 36 -75 13 -17 24 -43 24 -56 0 -14 10 -43 21 -65 19 -35 20
-46 11 -81 -10 -43 -7 -56 7 -20 6 18 13 9 46 -60 21 -44 42 -81 45 -81 4 0
12 -11 18 -25 7 -14 20 -25 31 -25 20 0 31 -18 31 -53 0 -21 38 -86 67 -115
15 -16 18 -46 3 -37 -12 7 -3 -43 11 -60 4 -6 17 -37 29 -70 12 -33 28 -73 35
-90 59 -130 63 -140 54 -157 -11 -20 -6 -22 20 -8 16 8 20 4 26 -23 4 -18 9
-26 12 -19 6 15 -15 104 -25 112 -27 20 -53 75 -54 115 0 28 -7 51 -19 63 -10
11 -15 22 -12 26 3 3 -1 8 -10 12 -22 8 -49 63 -42 85 6 19 -22 116 -36 125
-5 3 -9 10 -9 15 0 6 5 7 11 3 7 -4 10 -3 7 2 -2 5 -10 24 -17 42 -7 17 -17
32 -22 32 -5 0 -8 3 -7 8 1 4 -1 17 -6 30 -7 20 -9 20 -22 7 -21 -20 -34 -19
-34 4 0 10 -9 21 -20 24 -11 3 -20 11 -20 17 0 9 4 9 17 -1 15 -13 16 -9 11
49 -4 34 -2 62 3 62 4 0 6 6 3 14 -3 8 -12 12 -19 10 -12 -5 -29 30 -38 81 -5
26 -14 51 -35 95 -9 19 -22 49 -28 65 -10 26 -13 28 -19 11 -5 -10 -3 -21 2
-25 6 -3 13 -17 16 -31 3 -14 10 -42 15 -62 16 -61 -6 -43 -24 20 -9 31 -20
61 -25 66 -14 15 -11 48 6 66 14 15 11 29 -30 141 -24 68 -45 130 -45 136 0 7
-14 39 -31 71 -17 33 -33 78 -36 101 -3 22 -9 41 -13 41 -4 0 -11 17 -15 37
-4 21 -20 77 -36 126 -72 216 -119 458 -119 612 0 43 -4 65 -9 56 -10 -15 -25
216 -23 344 3 145 34 227 68 180 13 -17 14 -16 20 13 5 22 10 29 18 23 17 -14
36 12 19 27 -8 8 -13 9 -13 2 0 -5 -5 -10 -11 -10 -8 0 -9 15 -4 46 9 66 11
69 61 100 52 33 60 53 9 23 -32 -19 -35 -19 -41 -4 -6 13 25 235 42 310 4 16
3 17 -5 5 -16 -26 -46 -163 -68 -315 -3 -22 -14 -48 -24 -57 -17 -17 -18 -16
-22 10 l-4 27 -2 -27 c0 -16 -6 -28 -12 -28 -15 0 -3 48 16 67 8 8 15 31 15
51 1 20 7 66 16 102 18 80 28 168 14 130 -4 -14 -11 -47 -15 -74 -4 -32 -10
-45 -16 -39 -7 7 -3 40 10 97 12 48 21 99 21 112 0 14 9 41 19 62 19 37 21 43
21 62 0 6 9 19 20 30 11 11 16 20 11 20 -6 0 -1 22 11 50 11 27 24 47 29 44 5
-3 2 -21 -6 -41 -8 -19 -15 -42 -15 -49 0 -20 15 -17 17 4 2 33 26 107 39 123
8 8 14 29 14 45 0 17 6 39 14 50 8 10 13 30 10 44 -4 18 -3 21 4 11 8 -11 12
-10 21 5 21 36 4 -50 -18 -92 -12 -21 -21 -50 -21 -64 1 -22 3 -20 20 15 11
22 19 46 20 53 0 6 8 12 18 12 11 0 24 10 30 22 48 94 76 111 32 20 -26 -53
-26 -93 0 -112 12 -9 18 -21 14 -32 -3 -9 0 -28 7 -40 7 -13 12 -39 11 -58 -2
-23 1 -30 6 -22 7 11 10 10 16 -3 3 -9 6 -28 6 -41 0 -14 11 -36 24 -49 14
-14 20 -28 15 -36 -4 -7 -3 -21 2 -30 5 -10 9 -27 9 -39 0 -21 7 -41 43 -120
l15 -35 -5 40 -5 40 20 -37 c11 -21 22 -51 26 -68 3 -16 9 -43 12 -60 4 -17
10 -30 15 -30 5 0 9 -5 9 -11 0 -14 25 -39 39 -39 19 0 12 -18 -10 -25 -13 -4
-18 -12 -15 -22 3 -8 6 -20 6 -27 0 -7 7 -21 15 -32 15 -19 15 -19 10 1 -4 13
-1 11 7 -5 7 -14 17 -32 23 -40 5 -8 10 -19 10 -25 1 -5 5 -19 9 -30 4 -11 18
-49 30 -85 13 -36 28 -78 33 -95 6 -16 17 -46 24 -65 6 -19 16 -44 20 -55 4
-11 13 -38 20 -60 6 -22 20 -57 30 -77 10 -20 16 -43 13 -51 -3 -8 20 -66 51
-128 53 -108 56 -112 52 -69 -2 25 -16 71 -31 103 -14 32 -26 61 -26 65 0 4
-11 27 -24 52 -28 55 -40 100 -26 100 6 0 13 -13 17 -30 3 -16 9 -30 14 -30 5
0 9 -8 9 -18 0 -10 4 -22 8 -28 4 -5 16 -35 26 -66 11 -32 26 -66 35 -75 27
-30 43 -70 37 -89 -7 -23 8 -49 23 -40 7 5 11 -2 11 -16 0 -13 12 -41 26 -61
28 -42 27 -59 -2 -30 -17 17 -17 17 -11 -2 24 -78 33 -95 47 -92 11 1 16 -9
18 -37 3 -39 21 -66 41 -66 7 0 9 -10 6 -22 -3 -14 2 -32 13 -47 16 -20 22
-22 40 -12 27 14 28 2 3 -26 -19 -20 -19 -22 -1 -79 12 -41 19 -53 23 -39 3
16 6 13 12 -12 4 -18 11 -33 16 -33 5 0 9 -5 9 -11 0 -5 -4 -7 -10 -4 -17 11
-11 -4 24 -53 28 -41 33 -55 30 -94 -2 -34 1 -50 16 -66 11 -12 20 -26 20 -32
0 -6 5 -8 12 -4 8 5 9 -4 5 -34 -6 -36 -5 -40 12 -35 14 3 22 -5 35 -34 15
-35 16 -36 12 -8 -2 17 -7 40 -11 53 -4 12 -3 22 1 22 11 0 44 -57 44 -75 0
-7 6 -15 13 -18 6 -2 18 -26 26 -53 8 -27 18 -54 23 -61 5 -7 5 -14 -2 -18 -5
-3 -10 -13 -10 -22 0 -11 6 -14 21 -10 15 4 19 2 15 -9 -9 -25 5 -76 20 -70 8
3 18 -4 24 -14 7 -14 7 -20 0 -20 -5 0 -10 -7 -10 -15 0 -23 53 -124 65 -125
11 0 48 -71 44 -86 -5 -16 12 -57 36 -89 12 -17 26 -49 30 -73 7 -43 24 -67
26 -35 0 10 2 33 5 51 2 17 -1 32 -6 32 -6 0 -10 9 -10 20 0 10 -16 35 -37 55
-38 37 -43 60 -5 25 l22 -21 0 21 c0 11 -7 23 -15 27 -9 3 -23 19 -32 36 -8
17 -22 37 -29 45 -8 7 -14 29 -14 48 0 20 -5 44 -10 55 -8 13 -7 25 0 40 9 15
7 32 -5 70 -10 28 -15 59 -12 70 3 10 2 17 -3 14 -7 -5 -21 24 -35 74 -6 18
-9 21 -16 10 -8 -12 -11 -12 -19 1 -5 8 -10 21 -10 29 0 11 3 11 16 0 15 -12
16 -11 9 11 -4 14 -13 39 -20 55 l-13 30 1 -44 c2 -51 -13 -63 -30 -23 -19 43
-28 96 -15 88 7 -4 5 9 -4 30 -9 21 -13 50 -10 64 6 33 -3 72 -15 64 -5 -3 -9
3 -9 12 0 10 -6 25 -13 33 -8 9 -24 45 -37 81 -13 36 -29 72 -35 80 -7 8 -13
22 -13 30 -1 29 -25 105 -37 120 -19 23 -55 137 -49 154 3 7 1 17 -5 21 -6 3
-11 11 -11 16 0 6 4 7 10 4 6 -3 10 -1 10 4 0 6 -7 11 -15 11 -8 0 -15 4 -15
10 0 5 8 7 18 3 16 -6 16 -5 1 13 -9 10 -20 34 -24 51 -3 18 -11 35 -16 38 -5
4 -9 15 -9 26 0 10 -6 19 -13 19 -7 0 -20 27 -30 59 -10 32 -24 65 -32 71 -8
7 -15 23 -15 36 0 12 -4 26 -10 29 -5 3 -10 17 -10 31 0 14 -7 32 -15 40 -8 9
-15 28 -15 44 0 16 -5 30 -10 32 -11 3 -94 234 -139 388 -62 210 -75 241 -94
236 -17 -4 -17 -3 -3 18 10 17 12 26 4 34 -8 8 -6 15 6 27 15 15 13 19 -23 54
-37 35 -39 41 -32 74 9 39 4 84 -11 93 -6 4 -7 -2 -3 -17 17 -52 17 -54 1 -35
-17 22 -21 52 -7 60 5 3 0 41 -10 83 -23 97 -23 112 -1 141 l18 23 25 -32 c13
-17 24 -37 24 -43 1 -6 15 -40 33 -76 18 -36 32 -74 32 -86 0 -12 10 -28 22
-36 15 -10 19 -19 12 -29 -4 -8 -7 -21 -6 -31 2 -9 -2 -19 -8 -23 -5 -3 -10
-11 -10 -16 0 -6 5 -7 12 -3 8 5 9 0 6 -14 -8 -31 3 -27 42 13 22 23 37 32 44
25 6 -6 3 -17 -9 -30 -10 -11 -14 -20 -9 -20 5 0 2 -5 -6 -10 -13 -9 -13 -11
-1 -19 8 -5 20 -7 28 -4 11 4 12 1 2 -20 -10 -22 -8 -33 10 -71 11 -25 21 -52
21 -59 0 -8 8 -23 18 -35 10 -11 27 -38 38 -59 10 -21 23 -41 28 -44 10 -8 -1
-29 -15 -29 -5 0 -9 9 -9 20 0 11 -4 20 -10 20 -12 0 -13 -15 -1 -38 15 -29
31 -87 31 -110 0 -13 6 -22 15 -22 12 0 13 5 4 27 -8 21 -6 30 6 42 15 15 16
10 12 -56 -3 -63 -2 -71 11 -61 11 10 18 8 32 -10 23 -28 30 -28 31 1 1 12 5
-3 9 -34 4 -31 14 -71 24 -89 9 -18 16 -42 16 -52 0 -10 6 -21 14 -24 17 -6
26 -33 33 -94 2 -24 13 -62 24 -84 10 -21 16 -49 13 -61 -4 -18 0 -24 20 -29
20 -5 26 -13 26 -34 0 -15 4 -41 9 -59 6 -19 5 -35 -1 -41 -6 -6 -4 -21 8 -43
25 -48 33 -102 17 -114 -10 -8 -10 -15 2 -39 8 -15 15 -33 15 -38 0 -5 9 -22
19 -37 26 -36 37 -97 21 -116 -10 -13 -9 -15 9 -15 24 0 51 -50 51 -94 0 -26
27 -107 62 -184 23 -51 21 -73 -8 -87 -20 -10 -20 -10 -1 -30 18 -18 19 -18
14 -2 -4 11 -3 16 4 12 5 -4 7 -15 4 -25 -3 -11 16 -60 51 -126 35 -69 56
-122 56 -144 1 -20 10 -46 22 -60 22 -27 46 -66 46 -76 0 -3 -7 -4 -15 0 -23
9 -18 -10 8 -27 15 -10 29 -34 37 -64 7 -26 19 -57 27 -68 16 -24 17 -39 2
-29 -7 4 -10 1 -7 -7 3 -8 15 -13 26 -11 17 3 22 -2 22 -20 0 -26 27 -107 41
-124 16 -19 59 -108 59 -121 0 -7 9 -22 20 -33 11 -11 20 -27 20 -36 0 -9 6
-22 14 -28 8 -6 17 -22 21 -36 8 -28 11 -31 -44 40 -19 24 -20 24 -14 3 3 -13
9 -23 13 -23 13 0 29 -47 19 -57 -6 -6 2 -18 22 -34 17 -13 41 -32 52 -42 11
-9 24 -17 29 -17 5 0 15 -15 23 -34 8 -18 29 -46 47 -61 18 -16 33 -37 33 -49
0 -14 8 -22 23 -24 13 -2 27 -14 32 -28 5 -13 14 -24 20 -24 5 0 10 -7 10 -15
0 -8 5 -15 10 -15 6 0 10 -12 10 -26 0 -14 4 -23 10 -19 5 3 10 -3 10 -14 0
-11 7 -27 16 -35 8 -9 13 -20 10 -25 -8 -12 3 -41 15 -41 5 0 9 14 9 30 0 17
-4 30 -8 30 -4 0 -8 19 -9 43 -1 31 1 37 7 22 5 -11 9 -30 9 -42 1 -13 5 -23
10 -23 6 0 13 -20 16 -44 5 -32 11 -43 21 -39 9 3 14 -2 14 -16 0 -14 5 -19
14 -15 17 7 51 -54 59 -105 3 -19 15 -47 26 -62 12 -16 21 -35 21 -43 0 -8 11
-23 25 -34 14 -11 25 -25 25 -31 0 -6 6 -11 13 -11 9 0 8 -3 -2 -9 -11 -7 -10
-13 4 -34 9 -15 25 -29 36 -32 13 -5 19 -16 19 -38 0 -21 3 -27 9 -19 6 11 10
11 18 0 20 -25 44 -79 39 -87 -3 -4 4 -18 15 -30 17 -18 20 -30 14 -58 -6 -36
-6 -36 24 -30 17 4 33 2 36 -3 4 -6 11 -8 16 -5 5 4 9 -3 9 -15 0 -11 4 -28 8
-38 33 -68 40 -77 54 -74 24 4 32 -34 14 -59 -14 -21 -13 -25 29 -66 24 -25
46 -56 50 -70 3 -14 22 -46 42 -70 37 -45 39 -62 5 -44 -23 12 -43 15 -26 3 6
-4 22 -29 35 -57 33 -70 33 -69 20 -61 -16 11 -13 -10 4 -24 17 -14 20 -46 5
-55 -19 -12 -10 -33 20 -44 17 -5 33 -18 36 -28 4 -10 20 -46 36 -80 27 -57
37 -68 60 -64 8 1 -1 -28 -14 -46 -5 -6 -6 -28 -2 -49 l7 -38 18 22 c27 35 46
28 45 -16 l-1 -37 68 -3 c54 -2 67 0 67 12 0 8 -7 21 -15 30 -8 8 -15 23 -16
33 -2 72 -59 210 -59 143 0 -12 -4 -19 -9 -16 -5 3 -8 16 -8 29 -1 24 0 24 43
11 24 -7 44 -11 44 -8 0 3 -16 20 -35 38 -28 26 -35 41 -35 70 0 20 -4 36 -10
36 -5 0 -10 -9 -10 -20 0 -30 -18 -24 -61 20 -42 43 -47 63 -25 86 13 12 13
20 1 54 -8 22 -10 40 -5 40 4 0 10 -5 12 -12 3 -8 6 -9 11 -1 4 6 -2 21 -13
33 -11 13 -20 27 -20 31 0 4 -8 15 -17 25 -17 17 -16 17 10 10 15 -3 41 -21
57 -39 16 -18 30 -26 30 -20 0 13 -25 43 -87 109 -18 18 -33 37 -33 41 0 4
-11 21 -25 37 -13 16 -22 33 -18 39 4 7 10 3 16 -9 4 -12 21 -28 37 -37 16
-10 38 -33 50 -52 23 -37 30 -43 30 -22 0 6 -14 28 -31 47 -17 19 -38 47 -47
62 -9 15 -20 28 -24 28 -4 0 -8 6 -8 14 0 8 -5 16 -10 18 -6 2 -13 39 -16 82
-6 87 -21 144 -25 91 -1 -16 -1 -54 1 -82 2 -58 -14 -72 -25 -23 -5 24 -12 30
-33 31 -26 0 -26 1 -4 9 26 11 27 19 7 46 -9 12 -14 14 -15 6 0 -18 -35 -10
-36 8 -1 8 -2 34 -3 58 -1 30 -5 42 -16 42 -19 0 -19 19 0 26 8 4 15 13 15 20
0 11 -4 12 -19 4 -26 -14 -29 -13 -41 10 -7 14 -8 32 -1 55 8 31 7 35 -10 35
-21 0 -26 16 -7 22 8 3 4 15 -11 37 -14 19 -23 46 -23 69 0 77 5 122 13 122 5
0 9 -6 9 -14 0 -8 6 -21 14 -29 8 -7 23 -31 34 -51 11 -21 35 -45 53 -54 39
-20 72 -75 64 -106 -4 -14 -3 -17 3 -8 10 15 32 -69 33 -131 0 -33 2 -38 9
-22 5 11 9 34 9 52 1 18 6 43 13 57 9 21 8 36 -6 77 -17 53 -16 76 2 42 6 -10
22 -62 37 -116 39 -143 49 -164 85 -172 24 -5 30 -11 25 -25 -4 -13 1 -22 15
-30 14 -8 20 -18 17 -30 -3 -11 0 -17 7 -14 22 8 106 -160 106 -213 0 -12 -6
-23 -13 -26 -6 -2 0 -8 16 -12 27 -7 35 -19 19 -29 -5 -3 -9 -19 -10 -37 -1
-28 1 -29 12 -14 11 16 14 13 21 -26 l8 -44 7 40 c4 22 4 48 -1 57 -13 24 -12
26 16 26 15 0 25 -6 25 -15 0 -7 7 -16 15 -19 8 -4 15 -10 15 -15 0 -4 -6 -6
-14 -3 -24 9 -28 -15 -7 -38 12 -12 21 -32 21 -44 0 -12 7 -27 15 -34 8 -7 15
-18 15 -25 0 -7 7 -15 15 -19 8 -3 15 -18 15 -34 0 -15 5 -33 10 -38 6 -6 17
-48 25 -95 8 -46 19 -111 24 -144 6 -33 11 -81 11 -107 0 -41 3 -48 20 -48 13
0 18 5 14 15 -4 8 -9 15 -13 15 -3 0 -6 35 -7 78 0 42 -13 136 -28 209 -22
108 -24 136 -15 157 13 27 35 37 25 11 -7 -20 3 -45 19 -45 7 0 16 -6 18 -12
3 -7 3 5 0 27 l-4 40 20 -40 c24 -48 25 -55 7 -55 -13 0 -13 -4 0 -27 7 -16
14 -35 14 -44 0 -9 16 -62 35 -118 19 -56 35 -108 35 -116 0 -8 4 -15 8 -15 5
0 0 33 -10 73 -10 39 -17 79 -15 87 5 21 43 -66 52 -117 4 -24 11 -45 16 -49
5 -3 9 -21 9 -40 0 -24 4 -34 16 -34 11 0 14 6 9 20 -4 11 -2 20 4 20 6 0 11
-9 11 -20 0 -20 7 -20 855 -20 l855 0 0 8000 0 8000 -10000 0 -10000 0 0
-8000z m12023 6385 c4 -8 2 -17 -4 -20 -5 -4 -7 -11 -3 -16 3 -5 1 -16 -5 -23
-9 -10 -7 -16 6 -21 10 -5 23 -7 29 -6 6 0 17 -6 24 -14 7 -8 18 -15 25 -15 8
0 22 -11 33 -25 11 -14 27 -25 36 -25 9 0 16 -5 16 -10 0 -6 11 -16 25 -22 14
-6 25 -15 25 -21 0 -17 -48 3 -78 33 -17 16 -35 30 -41 30 -16 0 -13 -30 3
-36 8 -3 22 -17 32 -31 15 -24 15 -27 0 -35 -21 -12 -21 -48 -1 -48 29 0 72
-29 78 -52 8 -28 -1 -38 -14 -15 -15 26 -29 20 -26 -11 5 -39 13 -50 53 -67
19 -8 37 -21 40 -29 3 -8 12 -12 20 -9 29 11 72 -50 52 -74 -6 -7 0 -20 17
-37 31 -31 32 -62 3 -93 -15 -16 -17 -22 -7 -18 19 7 29 -19 29 -79 0 -24 7
-45 18 -55 27 -25 72 -95 72 -113 0 -8 11 -40 24 -71 14 -30 22 -57 19 -60 -3
-3 4 -23 15 -44 48 -92 61 -133 42 -133 -5 0 -10 7 -10 16 0 8 -4 12 -10 9 -6
-3 -10 5 -10 18 0 14 -14 40 -31 58 -28 30 -30 38 -25 76 4 28 2 43 -6 43 -21
0 -48 43 -48 78 0 25 -4 33 -14 29 -10 -4 -17 8 -26 42 -11 49 -50 90 -50 53
0 -10 4 -22 9 -27 13 -15 21 -69 12 -84 -12 -19 -17 -6 -35 82 -9 43 -21 86
-26 95 -5 9 -14 33 -19 52 l-9 35 -1 -47 c-1 -27 -5 -48 -11 -48 -5 0 -10 5
-10 11 0 6 -6 9 -13 6 -10 -4 -18 11 -28 46 -12 44 -59 116 -59 90 0 -5 4 -13
9 -19 5 -5 21 -49 36 -99 24 -75 30 -86 35 -65 l7 25 12 -28 c12 -31 4 -58
-10 -36 -9 15 -2 -35 12 -81 6 -20 7 -16 8 20 l1 45 20 -25 c11 -14 20 -31 20
-38 0 -7 3 -11 8 -9 4 3 8 -18 10 -46 2 -29 7 -70 12 -92 13 -54 12 -145 0
-145 -5 0 -10 7 -10 15 0 8 -6 29 -14 47 -8 18 -22 68 -32 111 -9 43 -20 80
-24 82 -4 3 -13 -16 -20 -42 -11 -37 -11 -54 -1 -92 15 -54 18 -72 20 -129 0
-24 5 -41 10 -37 6 3 8 38 6 78 -3 49 -2 64 4 47 5 -14 9 -46 10 -72 1 -27 5
-48 10 -48 5 0 12 -34 16 -75 4 -41 10 -73 15 -70 4 3 7 21 5 40 -2 19 -2 35
1 35 12 0 34 -80 34 -124 0 -31 6 -60 15 -72 15 -18 15 -18 10 6 -7 34 8 93
24 98 11 4 12 -4 7 -32 -4 -22 -3 -43 3 -50 6 -7 11 -27 13 -44 3 -43 18 -41
18 2 0 19 2 40 3 48 2 7 2 10 0 6 -13 -23 -19 0 -18 67 0 57 -4 78 -15 85 -12
8 -12 10 -1 10 10 0 12 9 6 36 -5 31 -4 36 9 31 19 -8 21 14 4 31 -12 12 -13
146 -1 165 10 17 30 -38 22 -60 -6 -16 -5 -23 4 -23 6 0 19 -17 28 -38 20 -47
41 -174 30 -185 -5 -5 -2 -22 6 -38 8 -16 13 -37 11 -47 -3 -13 -9 -8 -23 18
-23 43 -32 24 -15 -33 10 -38 14 -42 42 -42 39 0 55 34 37 77 -6 16 -9 31 -5
35 14 14 21 -12 26 -91 5 -63 11 -90 28 -113 12 -17 22 -41 22 -52 0 -12 4
-21 9 -21 11 0 16 -16 26 -72 7 -43 -9 -52 -25 -15 -10 22 -10 22 -7 -3 1 -18
9 -26 25 -28 16 -3 22 -8 18 -19 -4 -9 -1 -13 6 -10 7 2 14 12 14 23 1 10 2
25 3 32 2 24 22 12 27 -17 4 -17 12 -32 20 -35 8 -3 14 -15 14 -26 0 -12 3
-19 8 -17 4 3 7 -7 8 -23 1 -32 32 -79 54 -80 10 -1 11 -3 3 -7 -7 -2 -13 -10
-13 -17 0 -18 31 -78 52 -100 17 -19 18 -19 36 4 25 31 37 21 53 -41 9 -36 15
-45 20 -32 8 25 -17 115 -36 125 -21 12 -20 53 3 55 14 1 21 -14 35 -70 9 -40
17 -86 17 -104 0 -17 4 -34 9 -38 5 -3 7 -20 4 -38 -3 -23 2 -46 18 -76 12
-23 22 -55 21 -70 -1 -36 42 -154 58 -159 7 -3 6 8 -6 29 l-17 34 22 -19 c12
-11 28 -42 36 -69 18 -60 18 -57 5 -57 -5 0 -10 8 -11 18 0 10 -2 12 -6 4 -3
-7 6 -27 20 -45 13 -18 32 -57 42 -87 15 -46 139 -300 170 -351 5 -8 8 -22 7
-31 -2 -10 2 -18 7 -18 6 0 11 -8 11 -17 0 -20 32 -108 43 -120 5 -4 5 12 1
35 -8 53 0 53 26 0 13 -28 17 -45 10 -52 -16 -16 -12 -39 15 -92 24 -47 35
-85 15 -54 -14 23 -23 4 -9 -22 23 -44 47 -69 55 -57 4 7 11 -2 19 -23 6 -19
26 -53 43 -74 18 -22 41 -58 52 -79 l19 -40 -25 30 c-14 17 -32 42 -41 57 -21
35 -43 44 -35 16 10 -38 -19 -9 -45 46 -48 100 -68 134 -94 164 -15 16 -30 39
-34 51 -3 11 -13 21 -21 21 -8 0 -14 7 -14 15 0 9 -6 12 -15 9 -10 -4 -15 0
-15 10 0 24 -32 77 -68 113 -35 35 -39 30 -18 -22 10 -23 20 -33 29 -29 11 4
16 -6 19 -39 5 -40 37 -100 63 -119 6 -5 5 -12 -3 -20 -9 -9 -12 -9 -12 5 0 9
-4 17 -8 17 -4 0 -19 18 -32 40 -14 22 -31 40 -37 40 -7 0 -13 9 -13 19 0 11
-7 27 -16 36 -9 9 -18 34 -20 56 -2 22 -13 54 -25 70 -11 16 -25 46 -31 65
-14 53 -19 36 -7 -27 5 -29 12 -70 14 -89 11 -80 29 -151 41 -161 8 -6 14 -16
14 -22 0 -5 10 -19 23 -31 33 -32 90 -116 78 -116 -5 0 -31 25 -58 55 -26 30
-53 55 -59 55 -6 0 -16 11 -22 25 -14 30 -32 33 -32 6 0 -11 -4 -22 -8 -25
-10 -6 -2 -86 9 -86 5 0 9 -9 9 -20 0 -11 6 -21 13 -22 6 0 17 -2 23 -2 18 -2
48 -37 50 -60 2 -11 0 -15 -3 -8 -2 7 -13 17 -24 22 -32 18 -23 -13 22 -69 23
-29 38 -55 34 -59 -4 -4 -15 3 -26 16 l-18 24 3 -40 c5 -41 31 -102 49 -114 6
-4 11 -17 12 -30 1 -27 31 -130 49 -173 8 -16 21 -61 31 -100 17 -70 31 -99
44 -91 8 5 14 -24 14 -74 0 -19 6 -41 14 -48 7 -7 13 -24 13 -36 0 -43 12 -86
23 -79 6 4 7 1 2 -6 -8 -14 13 -61 26 -61 5 0 4 10 -2 23 -7 15 -7 31 0 47 9
23 10 23 10 4 1 -20 41 -67 41 -48 0 5 5 2 10 -6 6 -8 7 -38 4 -67 -5 -45 -4
-53 15 -65 25 -15 27 -28 6 -28 -20 0 -19 -9 7 -66 12 -27 21 -52 20 -56 -1
-5 5 -8 13 -8 10 0 15 -10 15 -34 0 -19 5 -36 12 -38 18 -6 22 -135 4 -153
-13 -14 -16 -13 -24 1 -6 11 -9 -7 -8 -56 1 -77 -15 -105 -33 -57 -5 13 -16
27 -23 29 -11 5 -39 101 -43 148 0 9 -4 20 -7 25 -3 6 -8 30 -12 55 -6 42 -29
97 -25 60 1 -8 1 -24 -1 -35 l-1 -20 -10 20 c-8 17 -9 16 -4 -5 15 -60 36
-167 38 -190 2 -14 8 -36 15 -50 18 -37 42 -164 32 -170 -12 -7 -16 -130 -5
-154 6 -14 5 -17 -3 -12 -8 5 -12 -2 -12 -21 0 -16 -4 -33 -9 -38 -12 -14 -31
-107 -31 -155 0 -24 -5 -40 -12 -40 -8 0 -9 27 -5 95 4 62 3 94 -3 90 -6 -3
-10 -45 -10 -93 0 -66 -4 -94 -18 -117 -10 -16 -31 -70 -46 -120 -16 -49 -37
-117 -47 -149 -11 -33 -19 -67 -19 -76 0 -9 -16 -63 -36 -121 -19 -57 -39
-121 -43 -142 -5 -20 -20 -54 -35 -75 -14 -21 -26 -44 -26 -51 0 -12 -9 -31
-61 -133 -10 -20 -19 -42 -19 -48 0 -5 -20 -52 -45 -103 -24 -51 -48 -107 -51
-124 -3 -18 -15 -40 -25 -49 -11 -9 -19 -24 -19 -32 0 -8 -9 -31 -19 -51 -11
-20 -29 -61 -40 -91 -27 -74 -44 -110 -54 -110 -5 0 -5 -5 -2 -11 6 -8 -93
-218 -155 -331 -6 -10 -14 -26 -20 -35 -57 -105 -158 -254 -261 -386 -86 -109
-234 -257 -370 -368 -24 -21 -61 -52 -81 -70 -61 -56 -124 -108 -169 -140 -24
-17 -51 -39 -60 -49 -9 -10 -56 -42 -105 -71 -85 -51 -160 -102 -195 -132 -9
-8 -43 -26 -75 -41 -33 -15 -75 -36 -94 -47 -88 -49 -162 -78 -240 -96 -51
-12 -84 -24 -82 -31 1 -7 -9 -12 -22 -12 -14 0 -31 -6 -38 -13 -7 -8 -24 -20
-37 -27 -22 -11 -23 -11 -18 6 5 12 -2 9 -16 -9 -17 -20 -36 -30 -65 -34 -23
-3 -42 -9 -42 -14 0 -4 -18 -13 -40 -19 -23 -6 -62 -24 -89 -39 -50 -30 -110
-53 -81 -31 13 9 12 11 -5 8 -11 -2 -20 -10 -20 -18 0 -10 -9 -14 -27 -12 -15
1 -29 -2 -33 -8 -3 -5 0 -10 7 -11 7 0 -3 -7 -22 -14 -44 -17 -53 -18 -45 -4
5 7 1 8 -11 1 -30 -15 -85 -39 -136 -59 -47 -18 -62 -33 -33 -33 8 0 15 5 15
12 0 6 3 9 6 6 3 -3 29 3 57 14 76 29 87 31 87 21 0 -12 -49 -35 -60 -28 -5 3
-10 2 -12 -2 -3 -8 -110 -62 -165 -83 -18 -7 -45 -9 -59 -6 -24 6 -74 -6 -149
-34 -11 -5 -42 -14 -70 -21 -27 -6 -54 -15 -60 -19 -5 -4 -21 -10 -35 -13 -14
-3 -52 -13 -85 -22 -33 -8 -95 -19 -139 -24 -43 -5 -81 -13 -85 -17 -7 -11
-20 -13 -126 -19 -115 -8 -145 -14 -145 -30 0 -11 -12 -15 -42 -15 -24 0 -63
-7 -87 -16 -47 -16 -77 -12 -65 8 5 9 2 8 -9 -1 -17 -14 -21 -14 -252 3 -16 1
-43 7 -58 14 -16 7 -39 12 -52 12 -13 0 -27 5 -30 11 -4 6 -14 8 -23 4 -8 -3
-18 -2 -21 3 -11 16 -92 52 -116 52 -13 0 -27 5 -31 11 -4 7 -22 9 -46 6 -31
-4 -47 0 -76 19 -20 14 -42 22 -49 20 -18 -7 -41 31 -49 82 -7 48 -34 59 -34
15 l-1 -28 -17 21 c-9 12 -25 37 -35 55 -13 24 -21 29 -26 20 -10 -16 -14 -9
-30 50 -10 35 -10 52 -2 67 7 14 8 23 1 27 -13 8 -9 63 6 76 7 5 9 28 6 59 -3
30 0 55 7 64 7 8 8 16 3 18 -5 1 -12 20 -15 41 -5 32 -3 37 14 37 11 0 19 7
19 18 0 9 7 25 15 35 7 11 11 26 8 34 -5 11 1 14 23 11 25 -3 30 1 39 30 7 26
14 32 37 32 27 0 28 2 28 46 l0 46 -40 -7 c-32 -5 -40 -4 -40 8 0 8 -8 18 -17
21 -19 8 -8 22 22 28 12 2 20 11 20 22 0 29 56 56 100 49 23 -4 32 -9 24 -14
-19 -11 11 -36 41 -35 18 1 25 -4 24 -16 -1 -9 5 -19 12 -22 8 -3 14 -2 14 2
0 4 11 9 26 10 14 1 34 6 44 12 24 13 52 13 87 -1 22 -8 24 -12 13 -19 -11 -7
-9 -10 12 -10 15 0 30 5 33 10 12 20 24 -1 15 -25 -6 -16 -6 -25 0 -25 6 0 10
6 10 14 0 25 26 35 106 41 43 3 111 7 149 10 39 3 97 9 130 15 33 6 76 13 95
16 91 14 197 37 215 47 19 11 24 12 53 15 6 1 12 7 12 13 0 13 26 40 32 33 3
-2 21 11 39 29 56 55 260 135 314 121 30 -7 33 10 6 43 -24 28 -106 53 -211
63 -77 7 -276 63 -322 90 -10 5 -27 10 -38 10 -11 0 -28 4 -38 10 -28 16 -194
86 -237 100 -22 7 -69 26 -105 42 -36 17 -92 40 -125 53 -33 12 -91 37 -128
55 -58 27 -86 33 -180 40 -61 4 -121 6 -133 4 -12 -2 -32 4 -45 14 -13 10 -36
23 -50 31 -32 16 -159 145 -159 161 0 6 16 44 35 84 19 40 35 80 35 88 0 7 4
18 8 24 4 5 14 27 21 49 12 37 48 119 89 203 9 19 15 44 14 57 -2 22 1 23 36
18 20 -3 45 -10 55 -15 9 -5 22 -6 27 -3 17 11 11 31 -12 44 -37 19 -61 34
-96 60 -18 12 -56 29 -85 37 -29 7 -57 20 -63 29 -6 8 -14 15 -17 15 -13 0
-87 85 -87 100 0 9 -11 27 -25 40 -14 13 -28 38 -31 57 -3 18 -10 36 -15 39
-12 7 -11 84 1 84 6 0 10 34 10 83 0 54 3 77 10 67 11 -17 23 -8 27 21 2 11 9
32 17 47 8 15 17 50 21 77 8 52 42 121 80 165 13 14 26 42 29 63 4 20 10 37
15 37 13 0 41 70 48 119 3 25 21 78 40 116 19 39 37 88 39 110 3 22 9 44 14
50 14 17 59 233 53 256 -4 12 0 25 8 30 8 4 15 21 16 36 5 72 55 258 86 325
14 30 28 67 32 83 7 30 20 65 37 98 5 11 9 38 10 60 0 23 4 47 10 54 5 6 12
82 15 169 5 134 4 159 -9 168 -9 6 -18 29 -21 51 -15 98 -20 115 -33 115 -8 0
-22 17 -32 38 -9 20 -21 40 -25 43 -4 3 -5 14 -1 24 5 13 4 16 -5 11 -19 -12
-61 33 -61 65 0 33 -27 47 -45 22 -12 -16 -14 -16 -34 7 -11 14 -20 28 -21 33
0 4 -6 7 -13 7 -7 0 -23 22 -34 48 -19 42 -53 86 -53 68 0 -4 -9 -2 -20 4 -11
6 -19 18 -18 27 2 12 -8 19 -35 25 -78 16 -167 83 -167 124 0 15 -6 24 -15 24
-9 0 -15 9 -15 23 -1 21 -1 21 -14 4 -13 -17 -16 -16 -49 16 -18 19 -37 42
-40 51 -4 9 -17 16 -31 16 -33 0 -56 10 -56 24 0 6 -10 16 -22 21 -16 7 -22
17 -20 32 2 15 -4 23 -19 28 -13 5 -17 10 -11 14 8 5 2 19 -17 42 -16 19 -31
48 -33 64 -2 25 -10 31 -43 41 -22 7 -32 13 -22 13 9 1 17 5 17 11 0 5 3 9 8
9 36 -6 43 22 14 54 -9 11 -12 17 -6 14 7 -4 17 0 24 8 7 8 21 15 31 15 22 0
23 8 9 44 -10 26 -43 36 -55 16 -3 -5 1 -10 10 -10 9 0 15 -6 13 -12 -9 -26
-33 -13 -36 20 -2 18 -9 32 -15 31 -31 -4 -40 1 -27 15 6 8 18 12 26 9 8 -3
14 0 14 6 0 6 -5 11 -11 11 -6 0 -9 10 -7 23 2 12 9 21 15 20 16 -3 39 27 26
35 -11 8 -30 61 -27 80 1 6 2 26 3 43 1 39 21 28 21 -12 0 -27 2 -29 15 -15
21 20 19 30 -9 51 -23 18 -24 20 -10 47 15 29 48 38 57 16 3 -7 5 7 5 32 -1
25 3 72 7 104 6 42 5 57 -3 52 -6 -3 -13 -2 -17 4 -3 5 0 10 8 10 19 0 41 28
42 53 0 28 32 47 45 27 9 -13 11 -13 20 0 6 10 10 11 10 3 0 -7 9 -13 20 -13
26 0 25 15 -1 34 -17 11 -20 22 -17 50 4 38 0 44 -20 24 -9 -9 -12 -9 -12 3 1
18 24 49 38 49 6 0 9 7 6 15 -4 8 -15 15 -25 15 -10 0 -19 2 -19 5 0 10 33 60
47 71 9 8 11 19 5 35 l-9 24 -7 -23 c-4 -12 -12 -22 -17 -22 -17 0 -9 33 13
57 19 20 20 25 6 40 -21 26 -12 56 15 49 17 -4 26 3 40 30 9 19 17 50 17 69 0
18 5 35 12 37 10 4 9 14 -1 47 -8 28 -9 47 -3 53 14 14 52 0 52 -18 0 -8 5
-12 10 -9 16 10 11 35 -7 35 -14 0 -14 2 2 20 10 12 24 19 30 16 7 -2 18 0 26
5 12 7 12 9 0 9 -11 0 -11 3 -1 15 7 8 18 15 26 15 7 0 34 11 59 24 25 14 53
26 63 29 14 3 12 6 -8 15 -21 9 -16 10 35 10 97 -1 135 7 152 31 17 24 12 38
-9 25 -19 -13 -99 -33 -128 -33 l-25 0 27 16 c22 14 46 53 33 53 -11 0 -55
-24 -55 -30 0 -4 -11 -10 -24 -12 -25 -5 -46 18 -57 62 l-6 25 -12 -30 c-7
-16 -10 -37 -8 -47 5 -19 -1 -22 -26 -12 -12 4 -13 12 -4 42 6 20 14 39 17 42
3 3 5 14 5 25 0 11 10 24 23 30 12 5 21 14 19 20 -2 5 3 16 12 23 14 12 12 12
-13 7 -26 -5 -28 -4 -17 9 10 11 18 13 31 6 31 -17 56 -11 70 16 9 17 20 24
32 21 10 -3 16 -1 12 4 -3 5 1 9 8 10 65 5 90 9 107 18 25 14 71 14 71 1 0 -5
8 -10 18 -10 16 1 16 1 0 11 -27 15 -21 29 11 29 17 0 33 5 36 10 3 6 22 10
41 10 27 0 34 4 34 19 0 11 5 23 10 26 6 3 10 2 10 -4 0 -20 36 -17 61 7 24
21 31 22 64 13 31 -8 35 -8 24 5 -9 11 -8 14 5 14 10 0 16 9 16 25 0 31 16 33
23 3 5 -18 8 -19 21 -8 9 7 16 9 16 6 0 -4 9 -2 21 4 11 7 23 9 27 6 7 -7 -24
-33 -55 -46 -13 -5 -23 -14 -23 -20 0 -14 12 -13 35 3 32 22 85 37 164 47 41
6 80 15 87 21 7 6 21 9 31 8 29 -3 125 39 117 52 -4 8 20 14 89 24 28 5 47 12
47 20 0 16 27 27 35 15 10 -16 35 -12 29 5 -4 8 -12 15 -20 15 -8 0 -14 3 -14
8 0 4 29 6 65 5 36 0 68 3 71 8 3 5 17 9 31 9 16 0 27 7 30 19 4 16 18 20 91
26 60 5 87 4 90 -4 2 -6 15 -11 29 -11 21 0 23 3 14 14 -17 20 12 46 47 41 15
-2 42 -4 60 -4 51 -1 37 -21 -15 -21 -27 0 -55 -5 -63 -10 -12 -8 -10 -10 8
-10 13 0 21 -4 18 -9 -4 -5 10 -5 32 0 47 11 52 11 52 1 0 -5 -11 -15 -25 -22
-14 -7 -25 -19 -25 -27 0 -17 3 -17 45 8 32 19 39 20 80 8 51 -15 56 -24 20
-33 -14 -4 -23 -10 -20 -15 6 -10 75 3 84 16 14 19 69 40 109 42 41 2 43 1 32
-19 -11 -21 -11 -21 29 -32 8 -3 -1 -11 -23 -22 -34 -16 -42 -44 -8 -31 8 3
19 1 22 -6 5 -7 20 -4 49 10 44 23 54 14 20 -18 -12 -11 -19 -27 -16 -35 5
-11 -1 -14 -26 -10 -21 4 -39 0 -52 -11 -16 -13 -16 -15 -2 -7 21 10 77 4 77
-9 0 -4 -8 -13 -17 -18 -17 -10 -17 -10 0 -11 9 0 17 5 17 10 0 6 7 10 15 10
8 0 15 9 15 19 0 14 5 18 20 14 11 -3 20 -9 20 -14 0 -5 7 -9 15 -9 9 0 20
-10 25 -22 6 -17 9 -19 9 -6 1 10 -9 27 -21 38 -23 21 -23 22 -4 36 13 9 32
12 58 8 30 -5 38 -3 38 9 0 29 38 30 64 3 21 -24 66 -36 66 -18 0 8 91 52 109
52 18 0 12 -28 -8 -39 -10 -6 -21 -20 -24 -31 -6 -23 8 -28 16 -6 4 9 14 12
27 9 12 -3 32 0 46 7 20 11 23 19 19 54 -3 30 -2 33 3 12 l7 -28 19 21 c11 12
23 21 28 21 24 0 -8 -68 -54 -113 -10 -10 -16 -22 -13 -28 15 -23 -25 -6 -40
18 -18 27 -18 27 -26 5 -5 -12 -6 -29 -3 -37 4 -10 0 -15 -15 -15 -16 0 -23
-8 -27 -30 -4 -16 -13 -30 -20 -30 -8 0 -14 -4 -14 -10 0 -20 27 -10 40 15 7
14 17 26 22 26 4 1 14 2 21 3 6 0 13 11 15 24 4 23 16 29 27 12 8 -13 45 -13
45 0 0 5 16 27 35 49 19 21 35 46 35 56 0 9 25 41 55 70 30 30 55 59 55 65 0
7 8 9 19 5 16 -5 18 -2 14 15 -4 14 -1 20 11 20 12 0 14 -7 10 -30 -4 -19 -2
-30 5 -30 6 0 11 7 11 15 0 8 5 15 10 15 6 0 10 -8 10 -17 0 -18 -22 -85 -30
-93 -3 -3 -11 -15 -18 -27 -11 -20 -10 -23 5 -23 17 -1 17 -1 0 -11 -11 -7
-16 -17 -12 -29 3 -10 -3 -33 -14 -51 -24 -42 -27 -63 -17 -112 7 -38 8 -38
26 -22 11 10 17 21 14 26 -7 11 33 158 48 178 7 9 25 27 40 40 30 26 37 47 13
37 -11 -4 -8 8 11 45 14 28 23 53 21 55 -2 2 -12 -14 -22 -36 -19 -43 -35 -52
-35 -20 0 11 4 20 10 20 5 0 12 16 16 36 5 29 10 35 25 31 12 -3 25 3 34 16
15 21 15 21 16 -8 0 -17 2 -49 4 -73 2 -23 -1 -40 -5 -37 -5 3 -11 1 -15 -4
-3 -6 4 -8 16 -6 26 5 46 30 54 68 7 28 24 34 55 17 15 -8 17 -6 13 10 -4 14
0 20 12 20 17 0 44 26 45 43 0 16 -19 6 -25 -13 -4 -11 -11 -18 -16 -15 -13 9
32 65 53 65 10 0 18 4 18 9 0 14 33 23 41 10 11 -18 26 -2 33 36 6 28 11 35
31 35 13 0 30 3 39 6 9 3 16 2 16 -4 0 -5 -13 -12 -29 -15 -16 -3 -31 -14 -35
-23 -5 -13 -2 -15 16 -9 13 4 34 8 48 9 19 1 24 6 23 23 -2 17 4 22 32 25 18
2 32 1 29 -3 -8 -14 17 -21 31 -9 8 7 20 10 27 7 7 -2 25 0 40 4 39 11 46 -9
8 -22 -31 -11 -33 -21 -5 -25 8 -1 15 2 15 7 0 5 9 9 20 9 12 0 20 -7 20 -17
0 -28 -15 -44 -34 -37 -14 6 -16 2 -10 -22 4 -16 14 -34 22 -40 18 -13 8 -70
-16 -84 -15 -8 -15 -11 -2 -20 19 -13 33 -13 25 0 -3 6 -3 15 1 22 5 7 11 5
21 -7 7 -11 13 -15 13 -9 0 5 9 -6 21 -25 11 -18 18 -38 16 -45 -2 -6 -12 5
-22 24 -16 31 -19 32 -25 15 -4 -11 -5 -36 -2 -55 4 -29 6 -32 13 -15 7 19 8
19 8 -2 1 -13 -3 -23 -9 -23 -14 0 -13 -27 1 -32 7 -2 15 -33 19 -68 4 -36 8
-55 9 -43 0 12 6 25 12 29 8 4 10 -11 7 -50 -2 -40 1 -56 10 -56 6 0 12 5 12
10 0 6 5 10 11 10 6 0 9 -15 8 -34 -2 -19 0 -38 4 -42 4 -4 7 13 7 39 0 26 6
52 14 60 8 8 11 18 6 23 -4 5 -11 18 -14 29 -3 11 -4 6 -2 -12 2 -24 -2 -33
-16 -36 -21 -6 -22 -3 -7 37 8 24 8 44 -3 86 -15 56 -14 85 3 74 5 -3 9 -22 9
-42 1 -35 2 -36 15 -18 8 11 15 28 15 38 0 10 4 18 9 18 13 0 22 -30 16 -54
-5 -17 -4 -18 4 -6 7 10 11 11 11 3 0 -7 5 -13 10 -13 6 0 10 12 10 26 0 14
-4 23 -9 20 -12 -8 -23 40 -16 67 6 21 5 21 -6 2 -12 -18 -13 -17 -26 15 -9
24 -12 27 -9 10 2 -14 0 -36 -3 -50 l-7 -25 -8 29 c-6 24 -9 27 -17 15 -8 -10
-9 -8 -5 11 2 14 -2 43 -10 65 -7 22 -14 48 -14 58 0 20 -11 22 -28 5 -9 -9
-12 -8 -12 5 0 9 5 17 10 17 15 0 12 66 -4 79 -20 17 5 85 33 89 15 2 21 -2
21 -15 0 -10 5 -25 11 -33 8 -12 10 -12 8 5 -4 54 14 58 26 6 6 -30 30 -48 40
-31 4 6 0 10 -8 10 -13 0 -18 13 -33 89 -3 12 1 30 7 38 10 11 10 16 1 22 -16
10 -5 41 14 41 8 0 14 5 14 10 0 6 -4 10 -10 10 -5 0 -10 7 -10 15 0 24 16 17
30 -12 12 -26 13 -27 20 -8 5 13 3 21 -6 23 -8 2 -14 10 -14 18 0 8 -4 14 -10
14 -5 0 -10 5 -10 10 0 6 6 10 13 10 8 0 22 9 33 21 19 21 19 21 -8 9 -33 -15
-53 -9 -61 19 -4 17 -1 21 19 21 19 0 24 5 24 26 0 23 -1 24 -16 10 -12 -12
-20 -13 -35 -6 -20 11 -25 35 -9 45 6 3 10 10 10 16 0 16 -18 10 -39 -12 -22
-23 -41 -18 -41 11 0 12 5 17 14 14 9 -3 15 5 19 25 8 37 28 40 50 9 15 -21
16 -21 16 -4 1 11 -10 34 -24 52 -14 18 -25 35 -25 38 0 15 60 4 84 -15 l26
-20 0 20 c0 13 -10 26 -25 33 -28 13 -36 58 -10 58 8 0 15 4 15 9 0 5 16 15
35 21 19 6 35 16 35 21 0 14 17 10 23 -6z m-1823 -96 c116 -35 140 -41 185
-45 28 -3 54 -10 60 -15 5 -5 25 -9 45 -10 31 -1 33 -2 10 -9 l-25 -7 29 -8
30 -8 -24 -9 c-16 -6 -26 -5 -28 1 -6 17 -52 13 -52 -4 0 -19 -37 -19 -70 0
-33 19 -51 19 -44 0 4 -8 15 -15 25 -15 11 0 27 -4 37 -9 9 -5 26 -13 37 -17
16 -7 12 -9 -19 -12 -28 -2 -42 1 -48 12 -5 9 -15 16 -22 16 -7 0 -38 11 -67
24 -52 24 -53 25 -21 25 36 1 43 16 12 26 -11 3 -20 10 -20 15 0 5 -10 12 -22
16 -22 7 -48 28 -48 38 0 8 -1 8 40 -5z m-140 -408 c0 -6 -19 -12 -42 -14 -37
-3 -35 -4 15 -5 42 -2 56 1 51 10 -5 8 4 9 34 5 23 -4 43 -3 47 2 3 6 67 10
145 9 88 0 138 -4 134 -10 -4 -5 -14 -8 -24 -5 -20 5 -48 -8 -38 -18 3 -4 50
-9 105 -12 104 -6 148 -17 138 -33 -3 -5 -24 -10 -46 -10 -21 0 -39 -4 -39 -9
0 -10 2 -11 95 -11 33 0 74 -4 90 -8 l30 -9 -23 -12 c-18 -9 -31 -10 -54 -2
-40 14 -175 14 -183 1 -5 -8 -11 -8 -20 0 -7 6 -42 9 -84 7 -39 -2 -71 0 -71
5 0 4 -24 8 -52 8 -29 0 -91 3 -137 7 -75 6 -81 7 -60 19 22 12 22 13 4 14
-11 1 -33 3 -50 4 -16 2 -64 6 -105 10 -126 12 -161 17 -156 24 2 4 -8 8 -22
9 -98 6 -121 9 -127 15 -4 4 52 5 125 2 95 -4 131 -3 126 5 -5 8 23 11 93 11
57 0 101 -4 101 -9z m3625 -640 c3 -5 22 -15 43 -22 20 -6 45 -20 55 -30 10
-10 29 -22 42 -25 14 -3 25 -10 25 -15 0 -5 7 -9 15 -9 8 0 15 -4 15 -10 0 -5
25 -34 55 -65 30 -31 55 -61 55 -66 0 -6 5 -7 11 -4 10 7 148 -131 149 -148 0
-12 -52 32 -166 140 -54 51 -113 100 -132 109 -19 9 -41 22 -50 29 -68 56
-142 119 -142 122 0 7 19 2 25 -6z m2340 -622 c1 -69 7 -135 14 -146 6 -12 11
-30 11 -40 -1 -12 -5 -8 -14 12 -7 16 -15 25 -19 19 -9 -15 8 -154 27 -228 15
-57 31 -171 21 -151 -2 6 -11 35 -19 65 -15 55 -15 55 -15 16 -2 -70 -19 -25
-25 64 -4 47 -8 103 -10 125 -2 22 1 68 6 103 8 48 7 66 -3 78 -10 13 -10 17
1 24 10 6 12 34 8 127 -4 84 -3 109 4 88 6 -16 11 -87 13 -156z m-2345 -263
c0 -3 18 -23 40 -43 22 -21 40 -44 40 -51 0 -7 5 -10 10 -7 6 3 10 -3 10 -14
0 -12 4 -21 8 -21 5 0 19 -20 32 -45 25 -48 36 -59 25 -24 -6 19 -5 20 15 9
15 -8 20 -8 16 -1 -4 7 -1 9 7 5 17 -6 29 -52 16 -59 -4 -3 -12 3 -18 12 -9
17 -10 17 -16 1 -4 -9 1 -28 11 -43 9 -14 14 -29 10 -33 -4 -3 -11 0 -16 8 -5
8 -12 11 -17 7 -4 -4 -2 -17 5 -27 14 -23 15 -30 3 -30 -12 0 -27 44 -30 91
-1 9 -10 27 -22 40 -26 30 -189 281 -189 292 0 4 14 -8 30 -26 17 -19 30 -37
30 -41z m-236 -288 c13 -18 31 -51 42 -73 10 -22 26 -49 36 -59 10 -11 18 -23
18 -28 0 -11 68 -115 80 -123 17 -10 12 3 -32 91 -23 46 -38 87 -35 90 4 4 10
-2 14 -12 6 -16 86 -140 99 -154 8 -8 -9 34 -28 68 -26 47 -22 50 12 12 17
-18 30 -29 30 -24 0 13 -49 106 -68 127 -8 9 -12 20 -9 24 4 3 23 -11 42 -33
19 -21 32 -31 29 -21 -10 28 4 20 21 -12 9 -18 12 -41 9 -60 -4 -20 -1 -35 9
-46 25 -24 29 -18 21 33 l-7 47 22 -27 c11 -14 21 -30 21 -36 0 -5 9 -17 20
-27 11 -10 20 -24 20 -31 0 -7 7 -17 15 -21 16 -9 158 -264 151 -271 -3 -2
-16 9 -30 24 l-24 29 5 -28 c3 -15 1 -27 -5 -27 -10 0 -62 63 -62 77 0 12 -64
103 -72 103 -17 0 -6 -47 17 -74 14 -16 25 -36 25 -45 0 -9 11 -34 23 -56 17
-30 21 -45 14 -56 -7 -11 -5 -26 7 -49 9 -18 16 -38 16 -44 0 -6 14 -24 31
-39 22 -19 29 -32 24 -46 -4 -13 9 -41 40 -87 27 -41 44 -78 44 -93 -1 -14 2
-34 6 -43 4 -10 3 -18 -2 -18 -15 0 -33 39 -26 56 4 12 3 15 -5 10 -8 -4 -12
0 -12 11 -1 22 -23 53 -39 53 -8 0 -7 -7 3 -22 20 -28 21 -44 1 -28 -8 7 -18
28 -21 49 -4 20 -9 30 -12 23 -3 -10 -7 -10 -18 -1 -8 6 -14 17 -14 23 0 6
-10 22 -22 36 -39 43 -134 163 -174 220 -21 30 -46 63 -56 74 -9 10 -22 31
-28 47 -7 16 -16 26 -21 23 -5 -2 -11 7 -15 21 -3 14 -14 29 -23 34 -8 5 -13
13 -9 17 5 4 19 -5 33 -20 32 -34 33 -11 2 35 -12 19 -37 58 -56 88 -18 30
-40 61 -48 69 -10 11 -13 25 -8 49 5 30 3 35 -15 40 -13 4 -19 11 -16 20 6 16
-10 52 -30 68 -16 13 -37 82 -29 95 9 14 41 -10 69 -52z m252 -783 c6 -6 17
-21 24 -34 17 -32 90 -111 102 -111 7 0 7 4 1 13 -6 6 -13 21 -16 32 -6 18 -5
18 12 -2 11 -13 24 -23 30 -23 6 0 11 -8 11 -18 0 -9 9 -23 20 -30 11 -7 20
-18 20 -25 0 -6 16 -29 35 -50 19 -21 35 -41 35 -46 0 -7 177 -185 245 -245
41 -37 38 -49 -5 -19 -22 16 -23 16 -17 0 5 -15 3 -16 -13 -7 -11 6 -18 16
-16 23 1 6 1 9 -1 5 -8 -14 -33 -8 -33 8 0 8 -4 13 -9 10 -5 -3 -7 -16 -3 -28
4 -16 2 -19 -8 -13 -9 6 -11 4 -6 -4 5 -7 14 -10 22 -7 8 3 11 0 7 -10 -3 -8
2 -21 12 -28 13 -9 15 -15 6 -20 -6 -4 -14 0 -17 8 -3 9 -12 16 -20 16 -8 0
-14 3 -14 8 0 4 -17 26 -37 48 -95 104 -133 154 -133 174 0 11 -8 32 -17 46
-14 22 -14 27 -2 34 7 5 10 12 6 17 -5 4 -12 1 -18 -7 -8 -13 -10 -13 -18 0
-7 10 -6 17 2 22 8 5 2 17 -20 38 -18 17 -33 26 -33 19 0 -7 -8 -5 -20 6 -11
10 -20 25 -20 33 0 8 -6 12 -14 9 -9 -4 -24 16 -46 61 -18 37 -44 82 -59 102
-25 33 -14 31 25 -5z m-136 -217 c0 -3 6 -13 13 -20 6 -7 24 -29 38 -48 15
-19 63 -73 108 -120 63 -65 79 -78 71 -55 -6 16 -16 35 -22 42 -6 7 -7 13 -3
13 5 0 -8 16 -28 35 -40 39 -45 47 -22 39 13 -5 14 -2 5 22 -6 16 -15 33 -20
39 -15 18 -31 67 -20 60 6 -3 10 -11 10 -16 0 -5 16 -33 35 -62 19 -28 35 -55
35 -59 0 -4 14 -27 30 -51 17 -25 30 -50 30 -56 0 -17 30 -62 60 -90 20 -20
21 -23 6 -18 -19 7 -19 7 -3 -11 9 -10 17 -25 17 -32 0 -7 16 -47 36 -87 20
-41 34 -76 31 -79 -3 -3 -25 35 -50 85 -45 89 -114 191 -129 191 -5 0 -32 26
-61 57 -80 88 -160 174 -184 200 -30 31 -32 59 -3 41 11 -7 20 -16 20 -20z
m210 -44 c0 -9 6 -14 13 -11 6 2 11 11 11 20 -1 9 2 14 7 11 5 -3 9 -12 9 -20
0 -8 6 -14 13 -15 14 -1 94 -89 81 -89 -5 0 -24 13 -42 29 -17 17 -32 26 -32
22 0 -7 130 -167 211 -260 16 -18 27 -36 24 -39 -3 -3 -13 5 -24 16 -10 12
-22 22 -27 22 -24 1 -80 70 -76 92 1 4 -4 5 -11 3 -7 -3 -17 5 -22 17 -6 13
-19 23 -30 23 -14 0 -24 13 -38 50 -10 28 -31 66 -46 85 -29 38 -47 75 -31 65
6 -3 10 -13 10 -21z m2510 -1119 c0 -16 7 -39 15 -49 21 -28 19 -58 -2 -54
-14 2 -18 -4 -16 -30 1 -38 21 -92 33 -92 5 0 10 8 12 18 6 26 -3 63 -13 56
-5 -3 -6 3 -2 12 5 13 10 10 24 -17 21 -39 24 -53 9 -44 -16 10 -12 -42 5 -75
15 -29 11 -38 -10 -22 -6 4 -16 18 -23 32 -22 45 -1 -119 34 -265 8 -33 16
-98 19 -145 2 -47 11 -114 20 -150 9 -36 18 -84 18 -107 1 -24 7 -43 12 -43
10 0 10 50 0 150 -2 25 -4 61 -5 80 -1 28 -3 31 -9 15 -7 -16 -9 -13 -15 19
-5 27 -4 41 5 46 8 5 10 22 6 46 l-5 39 15 -35 c11 -26 12 -39 4 -52 -13 -22
-14 -41 -2 -34 5 4 12 -6 15 -21 3 -16 13 -68 23 -117 13 -67 15 -90 6 -93 -7
-3 -9 -11 -6 -19 3 -8 0 -20 -6 -27 -7 -9 -8 -33 -2 -73 5 -32 9 -48 10 -34 2
33 26 66 36 49 4 -6 3 -14 -2 -18 -16 -10 -34 -121 -23 -141 12 -22 29 -364
23 -447 -4 -47 -1 -69 10 -87 9 -13 16 -32 15 -42 0 -11 2 -59 6 -109 5 -83 5
-87 -7 -45 l-12 45 -3 -65 c-3 -61 -4 -63 -17 -40 -13 25 -10 87 6 104 12 14
11 46 -1 46 -5 0 -10 24 -10 54 0 54 -14 83 -23 49 -4 -14 -5 -13 -6 5 0 12 3
22 9 22 5 0 8 47 7 115 -2 63 1 115 5 115 4 0 7 10 7 23 -1 17 -2 18 -6 4 -4
-14 -8 -15 -18 -7 -10 9 -15 4 -20 -20 -4 -17 -4 -47 -1 -66 4 -19 3 -34 -1
-34 -4 0 -9 -57 -11 -128 -2 -116 -9 -197 -26 -322 -12 -86 -14 -120 -6 -120
4 0 11 22 15 50 4 27 11 52 16 56 5 3 9 16 9 30 0 13 4 24 10 24 15 0 -1 -132
-21 -160 -18 -27 -35 -110 -21 -110 4 0 13 5 20 12 7 7 12 8 12 2 0 -5 4 -2
10 6 17 27 24 -18 10 -61 -18 -52 -40 -72 -40 -35 0 16 4 25 10 21 6 -3 10 0
10 8 0 7 -8 14 -17 14 -19 0 -45 -21 -37 -30 3 -3 8 -25 10 -48 4 -42 14 -68
14 -36 0 10 5 14 15 11 10 -4 12 -15 8 -37 -7 -44 -34 -137 -38 -137 -2 0 -3
38 -2 85 1 56 -2 88 -11 97 -9 9 -12 2 -12 -36 0 -26 -4 -55 -9 -64 -5 -9 -12
-69 -16 -132 -5 -90 -4 -112 5 -103 7 6 15 32 17 57 3 25 12 47 19 50 18 7 18
0 -7 -124 -11 -58 -22 -125 -25 -150 -2 -25 -8 -54 -13 -65 -18 -41 -30 -153
-26 -245 5 -87 4 -93 -9 -65 l-14 30 -6 -35 c-3 -19 -5 -44 -3 -55 1 -12 -3
-19 -10 -18 -8 2 -14 -10 -15 -32 -1 -19 -2 -43 -2 -52 -1 -10 -4 -21 -9 -24
-4 -3 -11 -20 -16 -37 -8 -25 -6 -36 6 -48 15 -14 14 -15 -3 -12 -17 3 -19 -3
-16 -40 2 -28 -1 -41 -8 -37 -11 7 -13 -5 -4 -29 3 -9 10 -14 14 -11 5 3 6 -4
3 -15 -3 -11 -1 -20 5 -20 15 0 22 67 10 101 -12 34 -2 52 15 28 7 -9 17 -14
23 -12 6 2 14 -13 18 -34 9 -58 7 -93 -5 -93 -8 0 -8 -4 1 -15 16 -19 3 -37
-21 -30 -18 6 -19 3 -12 -22 4 -15 7 -39 6 -52 -1 -13 5 -30 12 -37 7 -8 11
-22 8 -33 -3 -10 0 -22 6 -25 6 -4 11 -19 11 -34 1 -22 2 -24 10 -11 7 11 5
31 -6 62 -8 25 -14 60 -12 79 6 65 27 -4 34 -111 4 -56 11 -101 16 -101 4 0 8
-13 8 -29 0 -16 7 -47 15 -70 12 -36 12 -41 0 -41 -8 0 -15 6 -16 13 0 10 -2
10 -6 0 -2 -7 -9 -13 -15 -13 -16 0 -37 -32 -38 -55 0 -21 24 -96 41 -132 8
-14 8 -30 2 -50 l-10 -28 -7 35 c-4 19 -14 53 -21 75 -7 22 -21 66 -30 97 -20
67 -32 80 -41 43 -7 -27 29 -154 51 -185 13 -17 38 -111 32 -117 -3 -2 -7 8
-11 22 -4 14 -11 25 -16 25 -6 0 -10 13 -10 29 0 34 -16 50 -23 24 -3 -10 -5
-3 -6 15 0 17 -6 32 -12 32 -6 0 -8 7 -5 16 3 8 -1 31 -9 51 -8 19 -15 53 -15
74 0 21 -5 41 -11 45 -6 3 -8 16 -5 28 4 17 -2 28 -24 45 -17 12 -30 30 -30
41 0 10 -6 23 -14 27 -8 4 -16 17 -18 28 -5 22 -5 23 -27 -48 -15 -45 -6 -101
15 -93 15 6 17 -2 14 -46 -1 -14 3 -29 9 -33 6 -3 11 -15 11 -26 0 -11 -4 -17
-10 -14 -5 3 -10 15 -10 27 0 16 -3 18 -13 9 -8 -6 -12 -23 -9 -43 2 -18 2
-30 -2 -27 -4 3 -7 24 -7 45 0 21 -5 52 -11 67 l-11 29 -14 -39 c-8 -21 -19
-53 -24 -70 -6 -18 -15 -33 -20 -33 -11 0 -8 -48 6 -117 8 -36 -9 -47 -18 -12
-10 36 -27 10 -27 -41 0 -27 -4 -51 -8 -54 -8 -5 -13 -49 -16 -151 -1 -35 3
-49 12 -48 14 3 15 -35 3 -107 l-7 -45 -8 50 c-9 64 -22 87 -35 65 -6 -8 -13
-11 -18 -7 -4 5 -1 12 6 16 10 6 12 19 7 45 -5 28 -4 35 7 30 12 -4 14 7 9 64
-3 46 -1 72 7 76 16 10 14 43 -3 53 -11 6 -12 18 -6 53 12 60 12 80 0 80 -6 0
-9 -10 -7 -22 2 -13 2 -17 0 -10 -12 35 -33 -5 -33 -65 0 -22 5 -33 14 -33 8
0 16 -13 18 -29 3 -23 0 -31 -16 -35 -26 -7 -46 10 -46 40 0 12 -4 34 -9 47
-5 13 -11 46 -12 73 -3 41 0 49 15 52 16 3 18 0 12 -22 -5 -19 -3 -24 8 -20
16 6 50 100 42 119 -2 7 2 21 9 32 14 17 14 17 15 -5 0 -12 4 -30 9 -40 5 -9
13 -26 16 -37 7 -18 8 -17 18 10 5 17 14 36 20 43 5 7 7 15 4 18 -3 3 -12 -7
-21 -23 -8 -15 -15 -23 -16 -18 -1 24 54 225 61 225 5 0 9 -4 9 -10 0 -5 5
-10 11 -10 8 0 10 12 6 35 -4 26 -2 34 6 29 7 -3 4 1 -7 10 -11 9 -17 23 -13
35 3 11 0 22 -7 25 -8 3 -7 7 3 14 8 6 11 17 8 27 -9 22 -23 12 -32 -22 -3
-15 -20 -47 -36 -72 -21 -31 -29 -51 -25 -68 4 -12 11 -23 16 -23 13 0 13 -37
0 -45 -6 -3 -10 4 -10 17 0 13 -7 34 -16 46 -14 21 -14 25 1 49 11 16 15 37
12 57 -5 35 0 56 15 56 5 0 6 -9 3 -20 -13 -41 6 -18 30 36 28 63 31 90 13 97
-10 3 -9 11 3 33 9 16 20 28 26 27 6 -1 16 17 23 40 7 23 24 67 38 97 16 35
21 55 13 58 -8 3 -8 9 -1 23 6 11 10 25 8 32 -1 6 4 29 11 50 7 21 10 50 6 68
-4 19 -2 41 5 55 7 13 9 30 5 41 -8 17 -8 17 -12 1 -3 -10 -9 -18 -14 -18 -12
0 -12 27 1 35 6 3 10 26 10 50 0 26 5 47 13 52 19 11 34 101 25 148 -19 95
-18 134 5 178 l22 42 3 -30 c9 -97 32 -101 54 -7 11 45 16 57 17 37 1 -17 -8
-55 -20 -85 -16 -43 -21 -78 -21 -159 0 -75 -3 -100 -11 -92 -20 20 -24 12
-23 -48 1 -61 -9 -86 -24 -61 -5 8 -5 17 -1 20 5 3 11 15 15 28 5 16 3 22 -7
22 -18 0 -29 -60 -14 -78 5 -7 7 -32 4 -57 -4 -26 -3 -45 3 -45 9 0 15 18 42
125 6 28 16 54 20 59 16 19 8 -54 -16 -151 -13 -54 -30 -126 -37 -160 -11 -60
-29 -86 -29 -44 0 11 -4 23 -10 26 -15 9 -12 -16 5 -49 8 -15 12 -39 9 -52 -4
-15 -2 -24 5 -24 10 0 15 23 13 60 0 8 4 17 9 21 5 3 16 46 24 95 8 49 21 112
30 139 8 28 15 73 15 102 0 29 9 72 20 98 11 26 20 62 20 81 0 20 5 44 10 55
8 15 7 21 -4 25 -14 5 -14 10 0 42 25 60 27 79 39 342 4 100 26 208 43 219 7
4 7 12 2 20 -4 8 -6 67 -3 133 6 111 5 118 -12 112 -16 -6 -17 -3 -11 32 3 21
9 66 13 99 6 52 8 56 14 30 6 -26 7 -23 8 18 1 29 -3 46 -9 42 -10 -6 -19 25
-17 60 1 31 -13 273 -19 338 -4 38 -2 57 5 57 6 0 11 -15 11 -32 0 -18 5 -87
11 -153 6 -66 10 -146 10 -177 0 -44 3 -56 14 -52 18 7 21 55 16 341 -2 136
-4 285 -5 331 0 45 -5 82 -9 82 -4 0 -8 48 -7 108 0 162 -5 235 -18 240 -7 2
-12 16 -12 30 0 21 2 24 10 12 5 -8 10 -10 10 -4 0 6 -10 18 -22 26 -16 11
-19 20 -14 34 8 19 8 19 16 -1 l9 -20 0 20 c1 25 -28 154 -40 178 -5 9 -7 28
-3 42 3 13 -1 46 -9 72 -8 26 -18 63 -21 81 -8 47 5 281 15 257 4 -11 8 -33 9
-50z m-8906 10 c-4 -9 6 -19 28 -28 19 -8 47 -27 64 -42 36 -34 110 -85 122
-85 5 0 15 -7 22 -15 32 -39 -157 -4 -250 46 -42 23 -45 27 -42 59 2 19 14 46
25 61 22 27 40 30 31 4z m7353 -3356 c-3 -10 -1 -22 5 -25 12 -8 -169 -184
-189 -184 -5 0 -22 -12 -38 -28 -30 -26 -69 -52 -80 -52 -11 0 19 46 43 65 13
11 50 50 83 87 32 38 60 64 64 59 3 -5 -1 -11 -7 -14 -10 -3 -10 -8 -2 -16 9
-10 18 -6 40 14 16 15 40 35 54 45 28 21 19 41 -10 22 -23 -14 -30 -15 -30 -4
0 5 11 14 25 20 14 6 25 19 25 27 0 9 5 13 11 9 6 -3 9 -15 6 -25z m-368 -280
c-10 -20 -9 -21 15 -17 15 3 27 1 27 -6 8 -58 4 -90 -12 -111 -11 -13 -19 -31
-19 -41 0 -9 -3 -15 -6 -11 -6 6 -54 -37 -54 -49 0 -4 11 3 25 16 14 13 27 21
30 18 10 -10 -7 -58 -20 -58 -15 0 -26 -25 -19 -43 7 -18 34 -18 34 0 0 8 5
11 11 7 13 -8 5 -75 -13 -104 -9 -14 -9 -22 0 -33 10 -12 7 -21 -18 -47 -28
-30 -43 -79 -20 -65 6 4 7 -2 1 -17 -4 -13 -6 -28 -4 -35 2 -6 -3 -23 -12 -37
-10 -14 -14 -33 -11 -42 4 -11 2 -15 -8 -11 -20 8 -30 -24 -30 -98 1 -41 -1
-51 -6 -30 -5 26 -7 24 -13 -24 -3 -29 -15 -72 -27 -95 -11 -23 -20 -55 -20
-69 0 -15 -7 -30 -15 -33 -8 -4 -15 -15 -15 -25 0 -29 27 -12 40 24 10 29 12
30 22 14 7 -14 7 -22 -1 -30 -6 -6 -11 -28 -11 -48 0 -21 -5 -41 -10 -44 -6
-4 -8 -11 -4 -16 3 -6 -2 -16 -12 -24 -14 -10 -19 -30 -22 -84 -2 -39 -9 -71
-14 -71 -7 0 -9 20 -6 50 6 64 -7 56 -16 -9 -6 -47 -26 -82 -26 -47 0 9 -4 16
-10 16 -5 0 -10 -12 -10 -26 0 -19 4 -25 15 -20 15 6 17 2 19 -56 1 -26 -3
-33 -17 -32 -9 1 -17 -2 -17 -8 0 -5 -9 0 -20 10 -11 10 -39 25 -62 31 -51 16
-69 2 -37 -28 l23 -21 -27 0 c-14 0 -29 -5 -33 -11 -4 -7 -10 -7 -16 -1 -6 6
-22 7 -38 2 -36 -10 -40 -6 -40 44 0 23 -5 48 -11 56 -9 13 -10 12 -5 -2 3
-10 1 -20 -4 -23 -6 -4 -10 5 -10 19 0 14 4 27 9 30 5 3 8 105 6 227 -1 185 1
223 13 236 12 12 13 16 2 23 -11 7 -10 11 3 25 20 20 24 70 5 59 -10 -6 -10
-5 -1 7 6 8 18 45 25 83 8 39 20 72 26 74 7 2 12 -3 12 -12 0 -23 9 -20 32 9
18 23 46 36 33 16 -3 -5 7 -22 21 -38 15 -15 24 -23 20 -16 -10 18 4 63 21 63
8 0 12 4 9 9 -3 5 4 11 17 14 12 2 29 8 39 11 11 5 18 2 21 -11 4 -14 5 -13 6
5 1 14 9 26 20 29 11 3 21 17 25 35 8 39 23 58 42 51 17 -6 19 28 3 44 -15 15
-4 77 16 93 8 7 15 17 15 23 0 5 -9 2 -20 -8 -19 -18 -20 -17 -20 1 0 11 5 25
10 30 7 7 6 20 -5 40 -8 16 -15 36 -15 45 0 8 -5 20 -10 25 -7 7 -4 16 10 29
24 22 26 45 4 45 -14 0 -14 3 -4 15 7 8 21 15 32 15 17 0 19 -5 14 -26 -6 -22
-4 -24 11 -15 10 5 27 18 38 28 11 10 31 27 45 37 l25 18 -25 -7 c-14 -4 -32
-10 -40 -13 -8 -3 1 11 19 31 40 42 69 51 50 16z m-1574 -229 c3 -6 -1 -13
-11 -17 -14 -5 -13 -8 7 -19 13 -7 19 -13 12 -14 -7 0 -10 -6 -7 -13 2 -7 -9
-19 -28 -28 -59 -27 -232 -121 -274 -149 -40 -27 -77 -32 -114 -17 -8 3 -31 5
-50 4 -29 -2 -35 -6 -35 -26 0 -18 -9 -26 -45 -37 -25 -8 -54 -19 -65 -24 -11
-5 -31 -12 -44 -15 -12 -4 -39 -18 -58 -30 -19 -13 -55 -27 -81 -31 -42 -6
-163 -61 -187 -85 -5 -5 -17 -9 -27 -9 -10 0 -18 -4 -18 -10 0 -5 -10 -10 -22
-10 -13 0 -32 -7 -42 -15 -11 -8 -30 -15 -43 -15 -13 0 -23 -4 -23 -10 0 -5
-5 -10 -11 -10 -10 0 -70 -25 -121 -51 -36 -18 -27 11 9 31 21 12 29 18 18 15
-67 -23 -112 -40 -134 -52 -22 -11 -23 -13 -6 -13 30 0 6 -16 -55 -35 -30 -10
-70 -26 -88 -37 -18 -10 -39 -18 -46 -18 -13 0 -95 -32 -128 -50 -10 -5 -24
-7 -32 -4 -8 3 -31 1 -51 -5 -27 -7 -35 -7 -32 2 3 9 99 45 167 62 8 2 32 10
52 19 21 9 47 16 58 16 12 0 18 5 15 10 -3 6 -16 10 -28 10 -19 1 -20 2 -5 10
11 7 26 7 43 0 24 -9 53 -7 95 7 13 4 12 6 -2 14 -12 7 -24 6 -37 -3 -15 -9
-23 -10 -32 -1 -8 8 -6 11 7 10 13 -1 18 4 16 15 -1 10 6 19 20 23 38 11 161
56 193 71 17 7 78 36 137 64 58 27 112 50 120 50 7 0 22 7 32 15 11 8 29 15
40 15 18 0 19 2 6 11 -12 8 -10 9 9 4 13 -4 26 -3 30 2 8 11 108 50 151 58 19
4 55 16 80 27 96 44 132 58 150 58 10 0 20 4 22 9 3 9 235 127 318 161 30 13
78 33 105 46 58 27 62 27 70 14z m-4755 -281 c0 -5 -8 -9 -17 -10 -14 0 -13
-2 5 -9 27 -12 29 -40 2 -47 -26 -7 -26 -23 0 -23 17 0 18 -4 10 -25 -5 -13
-23 -39 -40 -56 -26 -27 -34 -31 -53 -22 -20 9 -22 16 -19 82 2 39 7 71 12 71
5 0 23 13 41 29 29 27 59 32 59 10z m4810 -28 c0 -5 -18 -16 -40 -25 -42 -17
-58 -45 -17 -31 12 5 39 8 60 9 20 0 37 2 37 6 0 3 19 6 41 7 33 2 40 0 35
-13 -5 -13 -3 -13 16 1 25 17 88 21 88 5 0 -6 -15 -14 -32 -17 l-33 -7 30 -6
30 -7 -25 -10 c-33 -14 -141 -47 -155 -48 -5 -1 -28 -6 -50 -12 -22 -7 -91
-15 -152 -19 -62 -3 -113 -10 -113 -13 0 -4 -30 -6 -67 -4 -38 1 -71 3 -75 3
-18 0 -6 20 11 20 10 0 21 7 25 15 7 20 -18 19 -39 -1 -8 -9 -21 -14 -29 -11
-7 3 -32 -3 -56 -14 -23 -10 -54 -19 -68 -19 -14 0 -64 -12 -110 -26 -46 -14
-93 -24 -105 -22 -12 2 24 18 83 37 58 18 125 42 150 51 52 20 248 82 270 85
8 1 22 5 30 8 65 27 103 36 120 27 13 -7 24 -4 42 13 24 22 98 36 98 18z
m3485 -88 c10 -56 26 -93 41 -93 8 0 14 -9 14 -20 0 -11 4 -20 9 -20 5 0 10
-15 10 -32 0 -61 8 -91 25 -103 22 -17 37 -72 30 -111 -3 -19 -1 -35 5 -38 6
-4 11 -15 11 -25 0 -19 33 -55 42 -46 3 3 8 -13 12 -36 4 -23 16 -53 27 -67
14 -19 16 -27 7 -33 -9 -6 -9 -16 -1 -41 26 -78 50 -137 61 -151 11 -13 56
-125 69 -172 3 -11 9 -24 13 -30 4 -5 10 -23 14 -40 4 -16 12 -32 17 -36 5 -3
16 -39 25 -80 8 -41 30 -106 49 -145 19 -39 35 -74 35 -78 0 -3 24 -57 54
-119 30 -62 71 -150 91 -197 20 -47 44 -98 52 -113 55 -104 52 -100 71 -85 14
11 15 10 9 -6 -5 -13 -1 -25 11 -36 10 -9 24 -37 31 -61 7 -24 24 -72 37 -107
25 -66 30 -97 14 -87 -5 3 -10 17 -10 29 0 13 -7 29 -15 36 -8 7 -15 20 -15
29 0 9 -6 25 -14 36 -7 11 -16 32 -20 48 -3 15 -11 27 -16 27 -6 0 -10 11 -10
25 0 14 -4 25 -10 25 -16 0 -12 -58 6 -85 14 -21 14 -30 4 -56 -10 -23 -10
-33 -1 -42 6 -6 11 -7 11 -1 0 5 18 -41 39 -102 21 -61 44 -119 49 -130 6 -10
14 -28 18 -39 6 -18 8 -16 13 10 7 34 15 26 26 -25 4 -19 14 -44 21 -55 16
-22 19 -55 5 -55 -5 0 -11 6 -14 13 -2 6 -8 9 -12 5 -4 -4 2 -19 14 -34 11
-15 21 -33 21 -41 0 -8 8 -28 17 -46 9 -18 17 -36 18 -42 2 -26 30 -65 47 -65
10 0 18 -7 18 -15 0 -8 -4 -15 -10 -15 -11 0 16 -78 33 -95 10 -10 6 21 -9 74
-5 17 -3 22 6 19 18 -6 50 -116 46 -158 -2 -19 -1 -27 1 -17 7 27 18 20 42
-28 28 -56 22 -90 -9 -55 -11 13 -20 20 -20 17 0 -20 67 -197 96 -253 35 -69
41 -94 24 -94 -6 0 -20 21 -31 48 -46 107 -103 222 -110 222 -4 0 -10 18 -14
40 -4 22 -10 40 -13 40 -4 0 -20 27 -37 60 -16 33 -32 55 -36 49 -9 -16 -71
121 -73 163 0 20 -5 35 -10 35 -5 -1 -19 18 -32 42 -20 36 -22 47 -11 59 10
13 9 15 -4 10 -14 -5 -20 6 -34 55 -9 34 -25 77 -36 95 -10 18 -19 44 -19 57
0 13 -4 27 -10 30 -5 3 -17 23 -25 43 -9 20 -25 54 -36 75 -11 21 -17 41 -15
46 3 5 -2 19 -12 32 -30 40 -74 148 -67 168 3 12 0 21 -10 25 -8 3 -15 14 -15
25 0 10 -7 21 -15 25 -10 3 -15 19 -15 45 0 22 -4 42 -10 46 -5 3 -7 12 -4 20
3 7 1 22 -6 32 -10 15 -10 14 -5 -9 3 -16 1 -28 -4 -28 -4 0 -22 42 -39 93
-17 50 -38 106 -46 122 -8 17 -18 43 -22 59 -11 46 12 23 32 -32 9 -26 21 -51
26 -57 16 -17 -3 47 -29 99 -13 27 -29 72 -34 100 -6 28 -32 101 -59 161 -26
61 -54 125 -61 143 -9 25 -14 30 -21 20 -6 -8 -8 1 -4 27 4 27 3 34 -3 20 -8
-18 -11 -16 -26 19 -9 21 -14 40 -11 43 5 6 -19 58 -37 82 -6 7 -12 20 -14 30
-3 25 -45 111 -52 107 -3 -2 -7 6 -7 17 -2 20 -125 280 -178 374 -13 23 -28
54 -34 70 -16 39 -62 120 -62 108 0 -6 -16 23 -35 63 -34 71 -43 98 -27 88 4
-2 16 -22 27 -43 11 -21 29 -50 40 -64 42 -55 56 -78 111 -189 37 -74 61 -79
30 -6 -8 20 -11 36 -6 36 5 0 12 -11 16 -25 3 -14 10 -23 14 -20 5 3 6 -4 3
-15 -4 -14 -1 -20 8 -18 9 2 15 -14 20 -52 10 -78 14 -92 45 -162 34 -77 30
-72 49 -65 12 5 13 11 3 34 -7 15 -20 36 -30 46 -10 10 -18 27 -18 37 0 30
-39 170 -60 215 -11 24 -17 51 -13 68 4 19 -2 39 -21 67 -16 25 -22 41 -15 46
6 3 8 12 5 20 -3 8 -1 14 5 14 6 0 9 6 7 13 -3 6 -10 12 -16 12 -6 0 -15 5
-21 10 -11 12 -40 123 -33 130 13 13 22 2 27 -32z m219 -271 c13 -26 22 -36
24 -27 2 9 -2 23 -9 31 -9 11 -9 18 -1 26 15 15 32 1 33 -30 0 -15 4 -36 8
-47 8 -19 8 -19 19 0 8 15 12 16 12 5 0 -8 3 -26 7 -39 5 -18 3 -22 -7 -16
-10 6 -11 2 -7 -16 10 -42 30 -113 35 -129 3 -8 4 -26 3 -39 -2 -14 1 -21 8
-17 7 5 9 -7 5 -36 -4 -28 -1 -55 9 -78 14 -32 15 -33 16 -10 1 19 4 21 10 10
16 -28 23 -72 10 -65 -6 4 -15 2 -19 -5 -10 -17 8 -70 23 -67 18 3 21 -45 4
-58 -11 -8 -15 -25 -13 -59 1 -26 -1 -42 -4 -34 -4 7 -10 47 -13 88 -3 47 -19
116 -41 183 -20 60 -36 118 -37 130 0 21 -1 21 -10 -3 -8 -20 -12 -22 -19 -10
-6 9 -4 20 3 29 7 8 11 24 9 35 -5 31 -73 247 -87 276 -33 66 -45 104 -45 138
1 32 4 27 27 -43 14 -44 35 -99 47 -123z m-493 117 c9 -35 26 -91 37 -124 11
-33 23 -73 27 -90 3 -16 18 -59 32 -95 14 -36 33 -92 42 -124 9 -33 21 -58 26
-55 12 5 12 24 0 59 -7 22 -6 23 9 11 9 -7 16 -18 16 -23 0 -5 7 -16 15 -24 8
-9 15 -31 15 -49 0 -26 -3 -33 -15 -29 -18 7 -19 0 -3 -29 11 -21 11 -21 18
-2 12 32 69 -96 72 -163 2 -31 7 -51 13 -48 21 8 48 -24 50 -56 4 -74 29 -168
45 -168 5 0 16 -21 25 -47 9 -27 26 -64 36 -84 10 -20 19 -43 19 -50 0 -7 6
-20 14 -28 8 -9 21 -36 29 -61 19 -58 66 -163 75 -170 15 -11 28 -46 24 -64
-5 -22 2 -33 -98 161 -144 280 -197 378 -212 396 -8 9 -12 17 -8 17 4 0 -1 12
-12 28 -22 31 -75 124 -110 195 -13 26 -22 59 -20 72 2 15 -7 33 -27 53 -17
17 -35 37 -40 44 -19 24 -65 117 -65 132 0 8 -13 29 -29 47 -16 17 -32 47 -36
65 -3 19 -10 34 -14 34 -12 0 -22 73 -12 83 8 8 33 -52 54 -130 6 -24 16 -43
22 -43 5 0 18 -20 28 -44 10 -23 26 -52 37 -63 10 -11 25 -40 33 -64 9 -26 22
-45 32 -48 14 -2 16 1 11 15 -5 11 -14 39 -21 64 -7 25 -24 77 -38 115 -48
137 -87 263 -87 284 0 12 -5 32 -12 44 -6 12 -17 46 -24 75 -19 79 6 62 27
-19z"/>
<path d="M11952 13570 c-10 -16 -9 -28 4 -65 8 -26 21 -76 29 -113 7 -37 20
-88 29 -114 8 -25 12 -49 9 -52 -7 -7 -33 41 -33 60 0 8 -9 14 -20 14 -11 0
-20 -4 -20 -9 0 -5 -3 -16 -6 -24 -4 -10 1 -15 13 -14 14 2 17 -4 15 -25 -3
-20 1 -28 12 -28 18 0 23 -56 5 -62 -5 -2 -7 -11 -3 -22 5 -14 9 -15 15 -4 6
9 9 7 9 -8 0 -12 7 -24 15 -28 8 -3 15 -12 15 -21 0 -8 4 -15 9 -15 15 0 30
-58 24 -94 -3 -18 0 -42 6 -52 9 -15 10 -12 5 20 -5 27 -3 37 4 32 6 -3 13 -2
16 3 4 5 2 12 -4 16 -5 3 -10 17 -10 30 0 13 -4 26 -9 29 -5 3 -7 28 -6 55 3
43 1 50 -17 54 -17 5 -19 11 -14 39 6 35 -7 130 -27 185 -9 29 -8 35 8 47 17
12 18 17 7 40 -7 15 -12 39 -13 54 l-1 27 -10 -30 -11 -30 -12 35 c-7 19 -10
47 -8 63 6 32 -7 36 -25 7z"/>
<path d="M12885 11910 c2 -19 5 -44 7 -55 2 -11 -2 -19 -9 -18 -8 2 -9 -6 -1
-30 5 -17 11 -39 12 -47 3 -18 9 -33 48 -128 32 -75 32 -114 0 -46 -45 99 -64
127 -73 113 -19 -31 17 -147 56 -179 9 -7 23 -26 31 -42 8 -16 24 -38 34 -48
11 -11 22 -31 26 -45 3 -14 10 -25 16 -25 5 0 6 -5 3 -10 -17 -27 19 -66 50
-54 19 8 20 34 1 34 -9 0 -15 19 -20 56 -3 30 -15 81 -26 112 -23 66 -23 65
-9 57 22 -14 1 82 -29 131 -17 27 -38 68 -47 92 -10 23 -21 42 -26 42 -5 0 -9
8 -9 18 0 10 -3 22 -7 26 -5 4 -13 24 -20 44 l-12 37 4 -35z"/>
<path d="M10181 10527 c-6 -6 -72 -11 -163 -13 -84 -1 -173 -7 -198 -13 -25
-6 -66 -11 -92 -11 -36 0 -48 -4 -48 -15 0 -8 -9 -15 -21 -15 -29 0 -59 -18
-59 -36 0 -8 -13 -17 -30 -21 -26 -5 -28 -8 -18 -21 7 -8 26 -21 43 -28 l30
-12 -27 -7 c-16 -4 -28 -11 -28 -16 0 -5 -11 -7 -25 -3 -15 4 -25 2 -25 -5 0
-6 -10 -11 -21 -11 -12 0 -35 -13 -51 -30 -34 -36 -31 -37 32 -5 59 30 60 30
60 5 0 -11 1 -20 3 -20 2 0 32 11 66 25 35 13 68 22 74 18 6 -4 8 0 5 9 -5 12
1 15 30 13 50 -3 52 -4 52 -14 0 -5 -12 -13 -27 -19 -21 -6 -6 -8 58 -7 72 1
91 5 114 23 33 26 51 28 72 6 11 -11 13 -18 5 -23 -13 -8 81 -6 175 4 50 5 77
4 86 -4 21 -16 200 -14 287 4 41 9 110 16 154 16 95 -1 131 13 65 25 -24 4
-52 7 -61 5 -13 -1 -16 3 -12 13 4 9 18 16 33 16 20 0 27 5 28 21 1 11 -3 19
-10 16 -6 -2 -24 9 -39 25 -15 15 -35 28 -45 28 -10 0 -38 7 -62 15 -32 12
-47 13 -57 4 -18 -15 -106 6 -157 38 -32 20 -38 21 -43 8 -4 -8 -10 -15 -16
-15 -5 0 -6 5 -3 10 4 6 -7 10 -27 9 -18 -1 -47 3 -64 9 -22 7 -35 7 -43 -1z"/>
<path d="M10265 10059 c-57 -9 -133 -40 -185 -74 -67 -45 -198 -145 -244 -187
-22 -21 -44 -38 -48 -38 -4 0 -8 -5 -8 -10 0 -6 -16 -27 -35 -47 -19 -20 -35
-46 -35 -59 0 -13 -5 -26 -10 -29 -7 -4 -6 -13 1 -26 9 -18 19 -20 79 -17 69
3 99 -10 92 -39 -2 -9 6 -9 28 -3 18 5 30 5 30 0 0 -14 -42 -39 -79 -46 -18
-4 -48 -21 -66 -39 -27 -25 -33 -37 -28 -56 9 -33 66 -89 113 -110 24 -11 38
-23 35 -31 -6 -14 50 -84 64 -81 5 1 7 -6 4 -17 -9 -34 11 -52 60 -54 35 -1
50 -8 66 -26 l21 -25 21 25 c12 14 24 24 27 22 4 -2 8 1 10 7 2 6 -1 11 -8 11
-6 0 -9 4 -6 9 4 5 -4 7 -16 4 -18 -4 -20 -3 -12 6 7 7 9 22 6 33 -4 15 -10
18 -29 13 -14 -3 -41 -1 -60 6 -30 9 -33 13 -19 21 24 13 19 37 -9 44 -22 6
-36 24 -17 24 30 -1 127 -31 159 -50 l38 -22 -47 48 c-27 27 -48 52 -48 56 0
4 -8 16 -17 26 -10 10 -23 27 -29 38 -8 13 -22 19 -47 18 -30 -1 -37 3 -45 25
-11 30 15 98 35 94 6 -1 17 4 23 12 7 8 21 15 31 15 11 0 19 4 19 9 0 6 16 22
35 36 32 25 37 26 72 14 56 -20 123 -12 145 16 17 22 60 40 85 36 6 -1 19 9
28 21 16 22 17 20 10 -47 -4 -38 -7 -77 -7 -85 6 -106 11 -129 46 -187 40 -68
95 -118 169 -152 65 -31 189 -27 260 8 94 46 197 175 197 248 0 12 5 25 10 28
6 4 8 11 5 16 -4 5 -4 13 0 19 8 13 40 0 111 -46 32 -21 66 -37 75 -36 20 3
64 -49 50 -58 -6 -3 3 -11 20 -17 26 -10 30 -10 25 3 -6 16 9 19 19 4 3 -5 13
-10 21 -10 8 0 12 5 9 10 -3 6 2 11 12 11 52 4 65 8 83 24 14 13 29 16 54 12
31 -5 56 6 56 25 0 4 -12 8 -27 8 -40 0 -123 32 -123 47 0 7 -6 13 -13 13 -7
0 -43 23 -79 50 -37 28 -72 50 -78 50 -6 0 -28 13 -48 30 -54 42 -164 97 -267
131 -49 17 -101 36 -115 43 -14 7 -46 19 -72 27 -27 7 -48 17 -48 21 0 4 -12
8 -27 8 l-27 0 22 20 c12 11 28 20 37 20 8 0 15 6 15 13 1 8 5 7 13 -4 9 -12
26 -15 77 -11 49 3 78 -1 120 -17 82 -31 104 -24 31 9 -35 17 -70 30 -77 30
-8 0 -22 4 -32 9 -45 23 -93 40 -128 47 -22 3 -66 14 -99 24 -86 26 -220 49
-317 56 -45 3 -87 6 -93 8 -5 1 -28 -1 -50 -5z m703 -508 c14 -12 22 -30 22
-49 0 -31 -34 -122 -46 -122 -4 0 -33 10 -66 23 -66 25 -74 40 -63 112 6 43 8
45 33 39 15 -4 31 -11 37 -15 13 -12 28 -11 20 1 -9 14 3 30 23 30 9 -1 27 -9
40 -19z"/>
<path d="M13970 5062 c-14 -9 -28 -20 -31 -25 -7 -9 -41 2 -51 17 -5 6 -8 2
-8 -10 0 -23 79 -114 99 -114 6 0 15 -9 19 -19 7 -19 7 -19 31 0 20 17 22 23
13 42 -6 12 -13 37 -14 56 -3 36 -28 57 -28 24 -1 -17 -1 -17 -11 1 -9 14 -8
20 2 27 7 4 11 10 9 12 -3 3 -16 -2 -30 -11z"/>
<path d="M16644 876 c-4 -19 -3 -31 4 -34 6 -2 16 -29 22 -60 11 -53 28 -100
40 -112 11 -11 60 -118 60 -131 1 -15 23 -49 34 -49 3 0 6 7 6 15 0 26 17 16
35 -21 9 -20 19 -33 22 -30 3 2 -13 42 -36 87 -23 46 -41 79 -41 75 0 -5 -7
-3 -15 4 -8 7 -15 9 -15 4 0 -11 -20 18 -20 30 0 5 7 3 15 -4 19 -16 19 -2 0
44 -17 41 -25 47 -18 14 4 -22 4 -22 -11 -4 -10 12 -12 23 -7 30 6 7 -5 41
-29 91 -37 77 -39 79 -46 51z"/>
<path d="M17700 596 c0 -4 11 -22 25 -40 14 -18 25 -38 25 -44 0 -6 4 -12 9
-14 5 -1 32 -43 61 -92 41 -70 49 -90 39 -97 -11 -7 -10 -9 3 -9 19 0 38 -28
38 -55 0 -10 11 -40 25 -67 14 -27 22 -54 19 -59 -3 -5 7 -24 21 -41 15 -18
32 -43 38 -57 8 -21 11 -23 14 -9 4 17 -52 173 -69 193 -4 5 -8 15 -8 22 0 7
-13 32 -30 55 -16 22 -30 45 -30 51 0 9 -17 38 -101 170 -42 66 -79 110 -79
93z"/>
</g>
</svg>
